M48
; DRILL file {KiCad 9.0.6} date 2025-12-23T15:22:59+0800
; FORMAT={-:-/ absolute / metric / decimal}
; #@! TF.CreationDate,2025-12-23T15:22:59+08:00
; #@! TF.GenerationSoftware,Kicad,Pcbnew,9.0.6
; #@! TF.FileFunction,Plated,1,2,PTH
FMAT,2
METRIC
; #@! TA.AperFunction,Plated,PTH,ViaDrill
T1C0.300
; #@! TA.AperFunction,Plated,PTH,ComponentDrill
T2C0.889
; #@! TA.AperFunction,Plated,PTH,ComponentDrill
T3C1.000
; #@! TA.AperFunction,Plated,PTH,ComponentDrill
T4C1.500
%
G90
G05
T1
X87.8Y-73.1
X96.1Y-86.1
X96.1Y-89.3
X97.1Y-84.0
X99.3Y-71.4
X100.1Y-72.6
X101.2Y-69.8
X102.7Y-70.8
X103.9Y-72.5
X107.9Y-87.1
X114.3Y-82.2
X130.9Y-82.8
X138.675Y-74.925
T2
X81.38Y-64.08
X81.38Y-66.62
X81.38Y-69.16
X81.38Y-71.7
X81.38Y-74.24
X81.38Y-76.78
X81.38Y-79.32
X96.62Y-64.08
X96.62Y-66.62
X96.62Y-69.16
X96.62Y-71.7
X96.62Y-74.24
X96.62Y-76.78
X96.62Y-79.32
T3
X105.685Y-68.675
X105.685Y-71.215
X105.685Y-73.755
X105.685Y-76.295
X144.65Y-69.9
X144.65Y-72.4
X144.65Y-74.9
X159.15Y-69.9
X159.15Y-74.9
T4
X108.69Y-100.36
X108.69Y-119.56
X115.04Y-97.82
X115.04Y-117.02
X127.89Y-100.36
X127.89Y-119.56
X134.24Y-97.82
X134.24Y-117.02
X147.09Y-100.36
X147.09Y-119.56
X153.44Y-97.82
X153.44Y-117.02
T4
X151.5Y-66.8G85X152.8Y-66.8
G05
X151.5Y-78.0G85X152.8Y-78.0
G05
M30
