%TF.GenerationSoftware,KiCad,Pcbnew,9.0.6*%
%TF.CreationDate,2025-12-23T15:22:59+08:00*%
%TF.ProjectId,jays-hackpad,6a617973-2d68-4616-936b-7061642e6b69,rev?*%
%TF.SameCoordinates,Original*%
%TF.FileFunction,Drillmap*%
%TF.FilePolarity,Positive*%
%FSLAX45Y45*%
G04 Gerber Fmt 4.5, Leading zero omitted, Abs format (unit mm)*
G04 Created by KiCad (PCBNEW 9.0.6) date 2025-12-23 15:22:59*
%MOMM*%
%LPD*%
G01*
G04 APERTURE LIST*
%ADD10C,0.050000*%
%ADD11C,0.200000*%
%ADD12C,0.100000*%
%ADD13C,0.150000*%
G04 APERTURE END LIST*
D10*
X7700000Y-6070000D02*
X16200000Y-6070000D01*
X16200000Y-13270000D01*
X7700000Y-13270000D01*
X7700000Y-6070000D01*
D11*
D12*
X8765000Y-7295000D02*
X8795000Y-7325000D01*
X8795000Y-7295000D02*
X8765000Y-7325000D01*
X9595000Y-8595000D02*
X9625000Y-8625000D01*
X9625000Y-8595000D02*
X9595000Y-8625000D01*
X9595000Y-8915000D02*
X9625000Y-8945000D01*
X9625000Y-8915000D02*
X9595000Y-8945000D01*
X9695000Y-8385000D02*
X9725000Y-8415000D01*
X9725000Y-8385000D02*
X9695000Y-8415000D01*
X9915000Y-7125000D02*
X9945000Y-7155000D01*
X9945000Y-7125000D02*
X9915000Y-7155000D01*
X9995000Y-7245000D02*
X10025000Y-7275000D01*
X10025000Y-7245000D02*
X9995000Y-7275000D01*
X10105000Y-6965000D02*
X10135000Y-6995000D01*
X10135000Y-6965000D02*
X10105000Y-6995000D01*
X10255000Y-7065000D02*
X10285000Y-7095000D01*
X10285000Y-7065000D02*
X10255000Y-7095000D01*
X10375000Y-7235000D02*
X10405000Y-7265000D01*
X10405000Y-7235000D02*
X10375000Y-7265000D01*
X10775000Y-8695000D02*
X10805000Y-8725000D01*
X10805000Y-8695000D02*
X10775000Y-8725000D01*
X11415000Y-8205000D02*
X11445000Y-8235000D01*
X11445000Y-8205000D02*
X11415000Y-8235000D01*
X13075000Y-8265000D02*
X13105000Y-8295000D01*
X13105000Y-8265000D02*
X13075000Y-8295000D01*
X13852500Y-7477500D02*
X13882500Y-7507500D01*
X13882500Y-7477500D02*
X13852500Y-7507500D01*
X8182450Y-6408000D02*
G75*
G02*
X8093550Y-6408000I-44450J0D01*
G01*
X8093550Y-6408000D02*
G75*
G02*
X8182450Y-6408000I44450J0D01*
G01*
X8182450Y-6662000D02*
G75*
G02*
X8093550Y-6662000I-44450J0D01*
G01*
X8093550Y-6662000D02*
G75*
G02*
X8182450Y-6662000I44450J0D01*
G01*
X8182450Y-6916000D02*
G75*
G02*
X8093550Y-6916000I-44450J0D01*
G01*
X8093550Y-6916000D02*
G75*
G02*
X8182450Y-6916000I44450J0D01*
G01*
X8182450Y-7170000D02*
G75*
G02*
X8093550Y-7170000I-44450J0D01*
G01*
X8093550Y-7170000D02*
G75*
G02*
X8182450Y-7170000I44450J0D01*
G01*
X8182450Y-7424000D02*
G75*
G02*
X8093550Y-7424000I-44450J0D01*
G01*
X8093550Y-7424000D02*
G75*
G02*
X8182450Y-7424000I44450J0D01*
G01*
X8182450Y-7678000D02*
G75*
G02*
X8093550Y-7678000I-44450J0D01*
G01*
X8093550Y-7678000D02*
G75*
G02*
X8182450Y-7678000I44450J0D01*
G01*
X8182450Y-7932000D02*
G75*
G02*
X8093550Y-7932000I-44450J0D01*
G01*
X8093550Y-7932000D02*
G75*
G02*
X8182450Y-7932000I44450J0D01*
G01*
X9706450Y-6408000D02*
G75*
G02*
X9617550Y-6408000I-44450J0D01*
G01*
X9617550Y-6408000D02*
G75*
G02*
X9706450Y-6408000I44450J0D01*
G01*
X9706450Y-6662000D02*
G75*
G02*
X9617550Y-6662000I-44450J0D01*
G01*
X9617550Y-6662000D02*
G75*
G02*
X9706450Y-6662000I44450J0D01*
G01*
X9706450Y-6916000D02*
G75*
G02*
X9617550Y-6916000I-44450J0D01*
G01*
X9617550Y-6916000D02*
G75*
G02*
X9706450Y-6916000I44450J0D01*
G01*
X9706450Y-7170000D02*
G75*
G02*
X9617550Y-7170000I-44450J0D01*
G01*
X9617550Y-7170000D02*
G75*
G02*
X9706450Y-7170000I44450J0D01*
G01*
X9706450Y-7424000D02*
G75*
G02*
X9617550Y-7424000I-44450J0D01*
G01*
X9617550Y-7424000D02*
G75*
G02*
X9706450Y-7424000I44450J0D01*
G01*
X9706450Y-7678000D02*
G75*
G02*
X9617550Y-7678000I-44450J0D01*
G01*
X9617550Y-7678000D02*
G75*
G02*
X9706450Y-7678000I44450J0D01*
G01*
X9706450Y-7932000D02*
G75*
G02*
X9617550Y-7932000I-44450J0D01*
G01*
X9617550Y-7932000D02*
G75*
G02*
X9706450Y-7932000I44450J0D01*
G01*
X10568500Y-6817500D02*
X10568500Y-6917500D01*
X10518500Y-6867500D02*
X10618500Y-6867500D01*
X10568500Y-7071500D02*
X10568500Y-7171500D01*
X10518500Y-7121500D02*
X10618500Y-7121500D01*
X10568500Y-7325500D02*
X10568500Y-7425500D01*
X10518500Y-7375500D02*
X10618500Y-7375500D01*
X10568500Y-7579500D02*
X10568500Y-7679500D01*
X10518500Y-7629500D02*
X10618500Y-7629500D01*
X14465000Y-6940000D02*
X14465000Y-7040000D01*
X14415000Y-6990000D02*
X14515000Y-6990000D01*
X14465000Y-7190000D02*
X14465000Y-7290000D01*
X14415000Y-7240000D02*
X14515000Y-7240000D01*
X14465000Y-7440000D02*
X14465000Y-7540000D01*
X14415000Y-7490000D02*
X14515000Y-7490000D01*
X15915000Y-6940000D02*
X15915000Y-7040000D01*
X15865000Y-6990000D02*
X15965000Y-6990000D01*
X15915000Y-7440000D02*
X15915000Y-7540000D01*
X15865000Y-7490000D02*
X15965000Y-7490000D01*
D13*
X10922034Y-10089034D02*
X10922034Y-9982967D01*
X10815967Y-9982967D01*
X10815967Y-10089034D01*
X10922034Y-10089034D01*
X10922034Y-12009033D02*
X10922034Y-11902966D01*
X10815967Y-11902966D01*
X10815967Y-12009033D01*
X10922034Y-12009033D01*
X11557033Y-9835034D02*
X11557033Y-9728967D01*
X11450966Y-9728967D01*
X11450966Y-9835034D01*
X11557033Y-9835034D01*
X11557033Y-11755033D02*
X11557033Y-11648966D01*
X11450966Y-11648966D01*
X11450966Y-11755033D01*
X11557033Y-11755033D01*
X12842033Y-10089034D02*
X12842033Y-9982967D01*
X12735966Y-9982967D01*
X12735966Y-10089034D01*
X12842033Y-10089034D01*
X12842033Y-12009033D02*
X12842033Y-11902966D01*
X12735966Y-11902966D01*
X12735966Y-12009033D01*
X12842033Y-12009033D01*
X13477033Y-9835034D02*
X13477033Y-9728967D01*
X13370966Y-9728967D01*
X13370966Y-9835034D01*
X13477033Y-9835034D01*
X13477033Y-11755033D02*
X13477033Y-11648966D01*
X13370966Y-11648966D01*
X13370966Y-11755033D01*
X13477033Y-11755033D01*
X14762033Y-10089034D02*
X14762033Y-9982967D01*
X14655966Y-9982967D01*
X14655966Y-10089034D01*
X14762033Y-10089034D01*
X14762033Y-12009033D02*
X14762033Y-11902966D01*
X14655966Y-11902966D01*
X14655966Y-12009033D01*
X14762033Y-12009033D01*
X15268033Y-6733033D02*
X15268033Y-6626966D01*
X15161966Y-6626966D01*
X15161966Y-6733033D01*
X15268033Y-6733033D01*
D12*
X15150000Y-6755000D02*
X15280000Y-6755000D01*
X15280000Y-6605000D02*
G75*
G02*
X15280000Y-6755000I0J-75000D01*
G01*
X15280000Y-6605000D02*
X15150000Y-6605000D01*
X15150000Y-6605000D02*
G75*
G03*
X15150000Y-6755000I0J-75000D01*
G01*
D13*
X15268033Y-7853033D02*
X15268033Y-7746966D01*
X15161966Y-7746966D01*
X15161966Y-7853033D01*
X15268033Y-7853033D01*
D12*
X15150000Y-7875000D02*
X15280000Y-7875000D01*
X15280000Y-7725000D02*
G75*
G02*
X15280000Y-7875000I0J-75000D01*
G01*
X15280000Y-7725000D02*
X15150000Y-7725000D01*
X15150000Y-7725000D02*
G75*
G03*
X15150000Y-7875000I0J-75000D01*
G01*
D13*
X15397033Y-9835034D02*
X15397033Y-9728967D01*
X15290966Y-9728967D01*
X15290966Y-9835034D01*
X15397033Y-9835034D01*
X15397033Y-11755033D02*
X15397033Y-11648966D01*
X15290966Y-11648966D01*
X15290966Y-11755033D01*
X15397033Y-11755033D01*
D11*
X7958277Y-13583984D02*
X7958277Y-13383984D01*
X7958277Y-13383984D02*
X8005896Y-13383984D01*
X8005896Y-13383984D02*
X8034467Y-13393508D01*
X8034467Y-13393508D02*
X8053515Y-13412555D01*
X8053515Y-13412555D02*
X8063039Y-13431603D01*
X8063039Y-13431603D02*
X8072562Y-13469698D01*
X8072562Y-13469698D02*
X8072562Y-13498269D01*
X8072562Y-13498269D02*
X8063039Y-13536365D01*
X8063039Y-13536365D02*
X8053515Y-13555412D01*
X8053515Y-13555412D02*
X8034467Y-13574460D01*
X8034467Y-13574460D02*
X8005896Y-13583984D01*
X8005896Y-13583984D02*
X7958277Y-13583984D01*
X8158277Y-13583984D02*
X8158277Y-13450650D01*
X8158277Y-13488746D02*
X8167801Y-13469698D01*
X8167801Y-13469698D02*
X8177324Y-13460174D01*
X8177324Y-13460174D02*
X8196372Y-13450650D01*
X8196372Y-13450650D02*
X8215420Y-13450650D01*
X8282086Y-13583984D02*
X8282086Y-13450650D01*
X8282086Y-13383984D02*
X8272562Y-13393508D01*
X8272562Y-13393508D02*
X8282086Y-13403031D01*
X8282086Y-13403031D02*
X8291610Y-13393508D01*
X8291610Y-13393508D02*
X8282086Y-13383984D01*
X8282086Y-13383984D02*
X8282086Y-13403031D01*
X8405896Y-13583984D02*
X8386848Y-13574460D01*
X8386848Y-13574460D02*
X8377324Y-13555412D01*
X8377324Y-13555412D02*
X8377324Y-13383984D01*
X8510658Y-13583984D02*
X8491610Y-13574460D01*
X8491610Y-13574460D02*
X8482086Y-13555412D01*
X8482086Y-13555412D02*
X8482086Y-13383984D01*
X8739229Y-13583984D02*
X8739229Y-13383984D01*
X8739229Y-13383984D02*
X8805896Y-13526841D01*
X8805896Y-13526841D02*
X8872563Y-13383984D01*
X8872563Y-13383984D02*
X8872563Y-13583984D01*
X9053515Y-13583984D02*
X9053515Y-13479222D01*
X9053515Y-13479222D02*
X9043991Y-13460174D01*
X9043991Y-13460174D02*
X9024944Y-13450650D01*
X9024944Y-13450650D02*
X8986848Y-13450650D01*
X8986848Y-13450650D02*
X8967801Y-13460174D01*
X9053515Y-13574460D02*
X9034467Y-13583984D01*
X9034467Y-13583984D02*
X8986848Y-13583984D01*
X8986848Y-13583984D02*
X8967801Y-13574460D01*
X8967801Y-13574460D02*
X8958277Y-13555412D01*
X8958277Y-13555412D02*
X8958277Y-13536365D01*
X8958277Y-13536365D02*
X8967801Y-13517317D01*
X8967801Y-13517317D02*
X8986848Y-13507793D01*
X8986848Y-13507793D02*
X9034467Y-13507793D01*
X9034467Y-13507793D02*
X9053515Y-13498269D01*
X9148753Y-13450650D02*
X9148753Y-13650650D01*
X9148753Y-13460174D02*
X9167801Y-13450650D01*
X9167801Y-13450650D02*
X9205896Y-13450650D01*
X9205896Y-13450650D02*
X9224944Y-13460174D01*
X9224944Y-13460174D02*
X9234467Y-13469698D01*
X9234467Y-13469698D02*
X9243991Y-13488746D01*
X9243991Y-13488746D02*
X9243991Y-13545888D01*
X9243991Y-13545888D02*
X9234467Y-13564936D01*
X9234467Y-13564936D02*
X9224944Y-13574460D01*
X9224944Y-13574460D02*
X9205896Y-13583984D01*
X9205896Y-13583984D02*
X9167801Y-13583984D01*
X9167801Y-13583984D02*
X9148753Y-13574460D01*
X9329705Y-13564936D02*
X9339229Y-13574460D01*
X9339229Y-13574460D02*
X9329705Y-13583984D01*
X9329705Y-13583984D02*
X9320182Y-13574460D01*
X9320182Y-13574460D02*
X9329705Y-13564936D01*
X9329705Y-13564936D02*
X9329705Y-13583984D01*
X9329705Y-13460174D02*
X9339229Y-13469698D01*
X9339229Y-13469698D02*
X9329705Y-13479222D01*
X9329705Y-13479222D02*
X9320182Y-13469698D01*
X9320182Y-13469698D02*
X9329705Y-13460174D01*
X9329705Y-13460174D02*
X9329705Y-13479222D01*
D12*
X7667500Y-13897500D02*
X7697500Y-13927500D01*
X7697500Y-13897500D02*
X7667500Y-13927500D01*
D11*
X7996372Y-13803984D02*
X8015420Y-13803984D01*
X8015420Y-13803984D02*
X8034467Y-13813508D01*
X8034467Y-13813508D02*
X8043991Y-13823031D01*
X8043991Y-13823031D02*
X8053515Y-13842079D01*
X8053515Y-13842079D02*
X8063039Y-13880174D01*
X8063039Y-13880174D02*
X8063039Y-13927793D01*
X8063039Y-13927793D02*
X8053515Y-13965888D01*
X8053515Y-13965888D02*
X8043991Y-13984936D01*
X8043991Y-13984936D02*
X8034467Y-13994460D01*
X8034467Y-13994460D02*
X8015420Y-14003984D01*
X8015420Y-14003984D02*
X7996372Y-14003984D01*
X7996372Y-14003984D02*
X7977324Y-13994460D01*
X7977324Y-13994460D02*
X7967801Y-13984936D01*
X7967801Y-13984936D02*
X7958277Y-13965888D01*
X7958277Y-13965888D02*
X7948753Y-13927793D01*
X7948753Y-13927793D02*
X7948753Y-13880174D01*
X7948753Y-13880174D02*
X7958277Y-13842079D01*
X7958277Y-13842079D02*
X7967801Y-13823031D01*
X7967801Y-13823031D02*
X7977324Y-13813508D01*
X7977324Y-13813508D02*
X7996372Y-13803984D01*
X8148753Y-13984936D02*
X8158277Y-13994460D01*
X8158277Y-13994460D02*
X8148753Y-14003984D01*
X8148753Y-14003984D02*
X8139229Y-13994460D01*
X8139229Y-13994460D02*
X8148753Y-13984936D01*
X8148753Y-13984936D02*
X8148753Y-14003984D01*
X8224943Y-13803984D02*
X8348753Y-13803984D01*
X8348753Y-13803984D02*
X8282086Y-13880174D01*
X8282086Y-13880174D02*
X8310658Y-13880174D01*
X8310658Y-13880174D02*
X8329705Y-13889698D01*
X8329705Y-13889698D02*
X8339229Y-13899222D01*
X8339229Y-13899222D02*
X8348753Y-13918269D01*
X8348753Y-13918269D02*
X8348753Y-13965888D01*
X8348753Y-13965888D02*
X8339229Y-13984936D01*
X8339229Y-13984936D02*
X8329705Y-13994460D01*
X8329705Y-13994460D02*
X8310658Y-14003984D01*
X8310658Y-14003984D02*
X8253515Y-14003984D01*
X8253515Y-14003984D02*
X8234467Y-13994460D01*
X8234467Y-13994460D02*
X8224943Y-13984936D01*
X8472563Y-13803984D02*
X8491610Y-13803984D01*
X8491610Y-13803984D02*
X8510658Y-13813508D01*
X8510658Y-13813508D02*
X8520182Y-13823031D01*
X8520182Y-13823031D02*
X8529705Y-13842079D01*
X8529705Y-13842079D02*
X8539229Y-13880174D01*
X8539229Y-13880174D02*
X8539229Y-13927793D01*
X8539229Y-13927793D02*
X8529705Y-13965888D01*
X8529705Y-13965888D02*
X8520182Y-13984936D01*
X8520182Y-13984936D02*
X8510658Y-13994460D01*
X8510658Y-13994460D02*
X8491610Y-14003984D01*
X8491610Y-14003984D02*
X8472563Y-14003984D01*
X8472563Y-14003984D02*
X8453515Y-13994460D01*
X8453515Y-13994460D02*
X8443991Y-13984936D01*
X8443991Y-13984936D02*
X8434467Y-13965888D01*
X8434467Y-13965888D02*
X8424944Y-13927793D01*
X8424944Y-13927793D02*
X8424944Y-13880174D01*
X8424944Y-13880174D02*
X8434467Y-13842079D01*
X8434467Y-13842079D02*
X8443991Y-13823031D01*
X8443991Y-13823031D02*
X8453515Y-13813508D01*
X8453515Y-13813508D02*
X8472563Y-13803984D01*
X8663039Y-13803984D02*
X8682086Y-13803984D01*
X8682086Y-13803984D02*
X8701134Y-13813508D01*
X8701134Y-13813508D02*
X8710658Y-13823031D01*
X8710658Y-13823031D02*
X8720182Y-13842079D01*
X8720182Y-13842079D02*
X8729705Y-13880174D01*
X8729705Y-13880174D02*
X8729705Y-13927793D01*
X8729705Y-13927793D02*
X8720182Y-13965888D01*
X8720182Y-13965888D02*
X8710658Y-13984936D01*
X8710658Y-13984936D02*
X8701134Y-13994460D01*
X8701134Y-13994460D02*
X8682086Y-14003984D01*
X8682086Y-14003984D02*
X8663039Y-14003984D01*
X8663039Y-14003984D02*
X8643991Y-13994460D01*
X8643991Y-13994460D02*
X8634467Y-13984936D01*
X8634467Y-13984936D02*
X8624944Y-13965888D01*
X8624944Y-13965888D02*
X8615420Y-13927793D01*
X8615420Y-13927793D02*
X8615420Y-13880174D01*
X8615420Y-13880174D02*
X8624944Y-13842079D01*
X8624944Y-13842079D02*
X8634467Y-13823031D01*
X8634467Y-13823031D02*
X8643991Y-13813508D01*
X8643991Y-13813508D02*
X8663039Y-13803984D01*
X8815420Y-14003984D02*
X8815420Y-13870650D01*
X8815420Y-13889698D02*
X8824944Y-13880174D01*
X8824944Y-13880174D02*
X8843991Y-13870650D01*
X8843991Y-13870650D02*
X8872563Y-13870650D01*
X8872563Y-13870650D02*
X8891610Y-13880174D01*
X8891610Y-13880174D02*
X8901134Y-13899222D01*
X8901134Y-13899222D02*
X8901134Y-14003984D01*
X8901134Y-13899222D02*
X8910658Y-13880174D01*
X8910658Y-13880174D02*
X8929705Y-13870650D01*
X8929705Y-13870650D02*
X8958277Y-13870650D01*
X8958277Y-13870650D02*
X8977325Y-13880174D01*
X8977325Y-13880174D02*
X8986848Y-13899222D01*
X8986848Y-13899222D02*
X8986848Y-14003984D01*
X9082086Y-14003984D02*
X9082086Y-13870650D01*
X9082086Y-13889698D02*
X9091610Y-13880174D01*
X9091610Y-13880174D02*
X9110658Y-13870650D01*
X9110658Y-13870650D02*
X9139229Y-13870650D01*
X9139229Y-13870650D02*
X9158277Y-13880174D01*
X9158277Y-13880174D02*
X9167801Y-13899222D01*
X9167801Y-13899222D02*
X9167801Y-14003984D01*
X9167801Y-13899222D02*
X9177325Y-13880174D01*
X9177325Y-13880174D02*
X9196372Y-13870650D01*
X9196372Y-13870650D02*
X9224944Y-13870650D01*
X9224944Y-13870650D02*
X9243991Y-13880174D01*
X9243991Y-13880174D02*
X9253515Y-13899222D01*
X9253515Y-13899222D02*
X9253515Y-14003984D01*
X9643991Y-13794460D02*
X9472563Y-14051603D01*
X9901134Y-13803984D02*
X9920182Y-13803984D01*
X9920182Y-13803984D02*
X9939229Y-13813508D01*
X9939229Y-13813508D02*
X9948753Y-13823031D01*
X9948753Y-13823031D02*
X9958277Y-13842079D01*
X9958277Y-13842079D02*
X9967801Y-13880174D01*
X9967801Y-13880174D02*
X9967801Y-13927793D01*
X9967801Y-13927793D02*
X9958277Y-13965888D01*
X9958277Y-13965888D02*
X9948753Y-13984936D01*
X9948753Y-13984936D02*
X9939229Y-13994460D01*
X9939229Y-13994460D02*
X9920182Y-14003984D01*
X9920182Y-14003984D02*
X9901134Y-14003984D01*
X9901134Y-14003984D02*
X9882087Y-13994460D01*
X9882087Y-13994460D02*
X9872563Y-13984936D01*
X9872563Y-13984936D02*
X9863039Y-13965888D01*
X9863039Y-13965888D02*
X9853515Y-13927793D01*
X9853515Y-13927793D02*
X9853515Y-13880174D01*
X9853515Y-13880174D02*
X9863039Y-13842079D01*
X9863039Y-13842079D02*
X9872563Y-13823031D01*
X9872563Y-13823031D02*
X9882087Y-13813508D01*
X9882087Y-13813508D02*
X9901134Y-13803984D01*
X10053515Y-13984936D02*
X10063039Y-13994460D01*
X10063039Y-13994460D02*
X10053515Y-14003984D01*
X10053515Y-14003984D02*
X10043991Y-13994460D01*
X10043991Y-13994460D02*
X10053515Y-13984936D01*
X10053515Y-13984936D02*
X10053515Y-14003984D01*
X10186848Y-13803984D02*
X10205896Y-13803984D01*
X10205896Y-13803984D02*
X10224944Y-13813508D01*
X10224944Y-13813508D02*
X10234468Y-13823031D01*
X10234468Y-13823031D02*
X10243991Y-13842079D01*
X10243991Y-13842079D02*
X10253515Y-13880174D01*
X10253515Y-13880174D02*
X10253515Y-13927793D01*
X10253515Y-13927793D02*
X10243991Y-13965888D01*
X10243991Y-13965888D02*
X10234468Y-13984936D01*
X10234468Y-13984936D02*
X10224944Y-13994460D01*
X10224944Y-13994460D02*
X10205896Y-14003984D01*
X10205896Y-14003984D02*
X10186848Y-14003984D01*
X10186848Y-14003984D02*
X10167801Y-13994460D01*
X10167801Y-13994460D02*
X10158277Y-13984936D01*
X10158277Y-13984936D02*
X10148753Y-13965888D01*
X10148753Y-13965888D02*
X10139229Y-13927793D01*
X10139229Y-13927793D02*
X10139229Y-13880174D01*
X10139229Y-13880174D02*
X10148753Y-13842079D01*
X10148753Y-13842079D02*
X10158277Y-13823031D01*
X10158277Y-13823031D02*
X10167801Y-13813508D01*
X10167801Y-13813508D02*
X10186848Y-13803984D01*
X10443991Y-14003984D02*
X10329706Y-14003984D01*
X10386848Y-14003984D02*
X10386848Y-13803984D01*
X10386848Y-13803984D02*
X10367801Y-13832555D01*
X10367801Y-13832555D02*
X10348753Y-13851603D01*
X10348753Y-13851603D02*
X10329706Y-13861127D01*
X10634468Y-14003984D02*
X10520182Y-14003984D01*
X10577325Y-14003984D02*
X10577325Y-13803984D01*
X10577325Y-13803984D02*
X10558277Y-13832555D01*
X10558277Y-13832555D02*
X10539229Y-13851603D01*
X10539229Y-13851603D02*
X10520182Y-13861127D01*
X10748753Y-13889698D02*
X10729706Y-13880174D01*
X10729706Y-13880174D02*
X10720182Y-13870650D01*
X10720182Y-13870650D02*
X10710658Y-13851603D01*
X10710658Y-13851603D02*
X10710658Y-13842079D01*
X10710658Y-13842079D02*
X10720182Y-13823031D01*
X10720182Y-13823031D02*
X10729706Y-13813508D01*
X10729706Y-13813508D02*
X10748753Y-13803984D01*
X10748753Y-13803984D02*
X10786849Y-13803984D01*
X10786849Y-13803984D02*
X10805896Y-13813508D01*
X10805896Y-13813508D02*
X10815420Y-13823031D01*
X10815420Y-13823031D02*
X10824944Y-13842079D01*
X10824944Y-13842079D02*
X10824944Y-13851603D01*
X10824944Y-13851603D02*
X10815420Y-13870650D01*
X10815420Y-13870650D02*
X10805896Y-13880174D01*
X10805896Y-13880174D02*
X10786849Y-13889698D01*
X10786849Y-13889698D02*
X10748753Y-13889698D01*
X10748753Y-13889698D02*
X10729706Y-13899222D01*
X10729706Y-13899222D02*
X10720182Y-13908746D01*
X10720182Y-13908746D02*
X10710658Y-13927793D01*
X10710658Y-13927793D02*
X10710658Y-13965888D01*
X10710658Y-13965888D02*
X10720182Y-13984936D01*
X10720182Y-13984936D02*
X10729706Y-13994460D01*
X10729706Y-13994460D02*
X10748753Y-14003984D01*
X10748753Y-14003984D02*
X10786849Y-14003984D01*
X10786849Y-14003984D02*
X10805896Y-13994460D01*
X10805896Y-13994460D02*
X10815420Y-13984936D01*
X10815420Y-13984936D02*
X10824944Y-13965888D01*
X10824944Y-13965888D02*
X10824944Y-13927793D01*
X10824944Y-13927793D02*
X10815420Y-13908746D01*
X10815420Y-13908746D02*
X10805896Y-13899222D01*
X10805896Y-13899222D02*
X10786849Y-13889698D01*
X10901134Y-13803984D02*
X10901134Y-13842079D01*
X10977325Y-13803984D02*
X10977325Y-13842079D01*
X11272563Y-14080174D02*
X11263039Y-14070650D01*
X11263039Y-14070650D02*
X11243991Y-14042079D01*
X11243991Y-14042079D02*
X11234468Y-14023031D01*
X11234468Y-14023031D02*
X11224944Y-13994460D01*
X11224944Y-13994460D02*
X11215420Y-13946841D01*
X11215420Y-13946841D02*
X11215420Y-13908746D01*
X11215420Y-13908746D02*
X11224944Y-13861127D01*
X11224944Y-13861127D02*
X11234468Y-13832555D01*
X11234468Y-13832555D02*
X11243991Y-13813508D01*
X11243991Y-13813508D02*
X11263039Y-13784936D01*
X11263039Y-13784936D02*
X11272563Y-13775412D01*
X11453515Y-14003984D02*
X11339229Y-14003984D01*
X11396372Y-14003984D02*
X11396372Y-13803984D01*
X11396372Y-13803984D02*
X11377325Y-13832555D01*
X11377325Y-13832555D02*
X11358277Y-13851603D01*
X11358277Y-13851603D02*
X11339229Y-13861127D01*
X11520182Y-13803984D02*
X11643991Y-13803984D01*
X11643991Y-13803984D02*
X11577325Y-13880174D01*
X11577325Y-13880174D02*
X11605896Y-13880174D01*
X11605896Y-13880174D02*
X11624944Y-13889698D01*
X11624944Y-13889698D02*
X11634468Y-13899222D01*
X11634468Y-13899222D02*
X11643991Y-13918269D01*
X11643991Y-13918269D02*
X11643991Y-13965888D01*
X11643991Y-13965888D02*
X11634468Y-13984936D01*
X11634468Y-13984936D02*
X11624944Y-13994460D01*
X11624944Y-13994460D02*
X11605896Y-14003984D01*
X11605896Y-14003984D02*
X11548753Y-14003984D01*
X11548753Y-14003984D02*
X11529706Y-13994460D01*
X11529706Y-13994460D02*
X11520182Y-13984936D01*
X11882087Y-14003984D02*
X11882087Y-13803984D01*
X11967801Y-14003984D02*
X11967801Y-13899222D01*
X11967801Y-13899222D02*
X11958277Y-13880174D01*
X11958277Y-13880174D02*
X11939230Y-13870650D01*
X11939230Y-13870650D02*
X11910658Y-13870650D01*
X11910658Y-13870650D02*
X11891610Y-13880174D01*
X11891610Y-13880174D02*
X11882087Y-13889698D01*
X12091610Y-14003984D02*
X12072563Y-13994460D01*
X12072563Y-13994460D02*
X12063039Y-13984936D01*
X12063039Y-13984936D02*
X12053515Y-13965888D01*
X12053515Y-13965888D02*
X12053515Y-13908746D01*
X12053515Y-13908746D02*
X12063039Y-13889698D01*
X12063039Y-13889698D02*
X12072563Y-13880174D01*
X12072563Y-13880174D02*
X12091610Y-13870650D01*
X12091610Y-13870650D02*
X12120182Y-13870650D01*
X12120182Y-13870650D02*
X12139230Y-13880174D01*
X12139230Y-13880174D02*
X12148753Y-13889698D01*
X12148753Y-13889698D02*
X12158277Y-13908746D01*
X12158277Y-13908746D02*
X12158277Y-13965888D01*
X12158277Y-13965888D02*
X12148753Y-13984936D01*
X12148753Y-13984936D02*
X12139230Y-13994460D01*
X12139230Y-13994460D02*
X12120182Y-14003984D01*
X12120182Y-14003984D02*
X12091610Y-14003984D01*
X12272563Y-14003984D02*
X12253515Y-13994460D01*
X12253515Y-13994460D02*
X12243991Y-13975412D01*
X12243991Y-13975412D02*
X12243991Y-13803984D01*
X12424944Y-13994460D02*
X12405896Y-14003984D01*
X12405896Y-14003984D02*
X12367801Y-14003984D01*
X12367801Y-14003984D02*
X12348753Y-13994460D01*
X12348753Y-13994460D02*
X12339230Y-13975412D01*
X12339230Y-13975412D02*
X12339230Y-13899222D01*
X12339230Y-13899222D02*
X12348753Y-13880174D01*
X12348753Y-13880174D02*
X12367801Y-13870650D01*
X12367801Y-13870650D02*
X12405896Y-13870650D01*
X12405896Y-13870650D02*
X12424944Y-13880174D01*
X12424944Y-13880174D02*
X12434468Y-13899222D01*
X12434468Y-13899222D02*
X12434468Y-13918269D01*
X12434468Y-13918269D02*
X12339230Y-13937317D01*
X12510658Y-13994460D02*
X12529706Y-14003984D01*
X12529706Y-14003984D02*
X12567801Y-14003984D01*
X12567801Y-14003984D02*
X12586849Y-13994460D01*
X12586849Y-13994460D02*
X12596372Y-13975412D01*
X12596372Y-13975412D02*
X12596372Y-13965888D01*
X12596372Y-13965888D02*
X12586849Y-13946841D01*
X12586849Y-13946841D02*
X12567801Y-13937317D01*
X12567801Y-13937317D02*
X12539230Y-13937317D01*
X12539230Y-13937317D02*
X12520182Y-13927793D01*
X12520182Y-13927793D02*
X12510658Y-13908746D01*
X12510658Y-13908746D02*
X12510658Y-13899222D01*
X12510658Y-13899222D02*
X12520182Y-13880174D01*
X12520182Y-13880174D02*
X12539230Y-13870650D01*
X12539230Y-13870650D02*
X12567801Y-13870650D01*
X12567801Y-13870650D02*
X12586849Y-13880174D01*
X12663039Y-14080174D02*
X12672563Y-14070650D01*
X12672563Y-14070650D02*
X12691611Y-14042079D01*
X12691611Y-14042079D02*
X12701134Y-14023031D01*
X12701134Y-14023031D02*
X12710658Y-13994460D01*
X12710658Y-13994460D02*
X12720182Y-13946841D01*
X12720182Y-13946841D02*
X12720182Y-13908746D01*
X12720182Y-13908746D02*
X12710658Y-13861127D01*
X12710658Y-13861127D02*
X12701134Y-13832555D01*
X12701134Y-13832555D02*
X12691611Y-13813508D01*
X12691611Y-13813508D02*
X12672563Y-13784936D01*
X12672563Y-13784936D02*
X12663039Y-13775412D01*
D12*
X7697500Y-14176500D02*
G75*
G02*
X7608600Y-14176500I-44450J0D01*
G01*
X7608600Y-14176500D02*
G75*
G02*
X7697500Y-14176500I44450J0D01*
G01*
D11*
X7996372Y-14067984D02*
X8015420Y-14067984D01*
X8015420Y-14067984D02*
X8034467Y-14077508D01*
X8034467Y-14077508D02*
X8043991Y-14087031D01*
X8043991Y-14087031D02*
X8053515Y-14106079D01*
X8053515Y-14106079D02*
X8063039Y-14144174D01*
X8063039Y-14144174D02*
X8063039Y-14191793D01*
X8063039Y-14191793D02*
X8053515Y-14229888D01*
X8053515Y-14229888D02*
X8043991Y-14248936D01*
X8043991Y-14248936D02*
X8034467Y-14258460D01*
X8034467Y-14258460D02*
X8015420Y-14267984D01*
X8015420Y-14267984D02*
X7996372Y-14267984D01*
X7996372Y-14267984D02*
X7977324Y-14258460D01*
X7977324Y-14258460D02*
X7967801Y-14248936D01*
X7967801Y-14248936D02*
X7958277Y-14229888D01*
X7958277Y-14229888D02*
X7948753Y-14191793D01*
X7948753Y-14191793D02*
X7948753Y-14144174D01*
X7948753Y-14144174D02*
X7958277Y-14106079D01*
X7958277Y-14106079D02*
X7967801Y-14087031D01*
X7967801Y-14087031D02*
X7977324Y-14077508D01*
X7977324Y-14077508D02*
X7996372Y-14067984D01*
X8148753Y-14248936D02*
X8158277Y-14258460D01*
X8158277Y-14258460D02*
X8148753Y-14267984D01*
X8148753Y-14267984D02*
X8139229Y-14258460D01*
X8139229Y-14258460D02*
X8148753Y-14248936D01*
X8148753Y-14248936D02*
X8148753Y-14267984D01*
X8272562Y-14153698D02*
X8253515Y-14144174D01*
X8253515Y-14144174D02*
X8243991Y-14134650D01*
X8243991Y-14134650D02*
X8234467Y-14115603D01*
X8234467Y-14115603D02*
X8234467Y-14106079D01*
X8234467Y-14106079D02*
X8243991Y-14087031D01*
X8243991Y-14087031D02*
X8253515Y-14077508D01*
X8253515Y-14077508D02*
X8272562Y-14067984D01*
X8272562Y-14067984D02*
X8310658Y-14067984D01*
X8310658Y-14067984D02*
X8329705Y-14077508D01*
X8329705Y-14077508D02*
X8339229Y-14087031D01*
X8339229Y-14087031D02*
X8348753Y-14106079D01*
X8348753Y-14106079D02*
X8348753Y-14115603D01*
X8348753Y-14115603D02*
X8339229Y-14134650D01*
X8339229Y-14134650D02*
X8329705Y-14144174D01*
X8329705Y-14144174D02*
X8310658Y-14153698D01*
X8310658Y-14153698D02*
X8272562Y-14153698D01*
X8272562Y-14153698D02*
X8253515Y-14163222D01*
X8253515Y-14163222D02*
X8243991Y-14172746D01*
X8243991Y-14172746D02*
X8234467Y-14191793D01*
X8234467Y-14191793D02*
X8234467Y-14229888D01*
X8234467Y-14229888D02*
X8243991Y-14248936D01*
X8243991Y-14248936D02*
X8253515Y-14258460D01*
X8253515Y-14258460D02*
X8272562Y-14267984D01*
X8272562Y-14267984D02*
X8310658Y-14267984D01*
X8310658Y-14267984D02*
X8329705Y-14258460D01*
X8329705Y-14258460D02*
X8339229Y-14248936D01*
X8339229Y-14248936D02*
X8348753Y-14229888D01*
X8348753Y-14229888D02*
X8348753Y-14191793D01*
X8348753Y-14191793D02*
X8339229Y-14172746D01*
X8339229Y-14172746D02*
X8329705Y-14163222D01*
X8329705Y-14163222D02*
X8310658Y-14153698D01*
X8463039Y-14153698D02*
X8443991Y-14144174D01*
X8443991Y-14144174D02*
X8434467Y-14134650D01*
X8434467Y-14134650D02*
X8424944Y-14115603D01*
X8424944Y-14115603D02*
X8424944Y-14106079D01*
X8424944Y-14106079D02*
X8434467Y-14087031D01*
X8434467Y-14087031D02*
X8443991Y-14077508D01*
X8443991Y-14077508D02*
X8463039Y-14067984D01*
X8463039Y-14067984D02*
X8501134Y-14067984D01*
X8501134Y-14067984D02*
X8520182Y-14077508D01*
X8520182Y-14077508D02*
X8529705Y-14087031D01*
X8529705Y-14087031D02*
X8539229Y-14106079D01*
X8539229Y-14106079D02*
X8539229Y-14115603D01*
X8539229Y-14115603D02*
X8529705Y-14134650D01*
X8529705Y-14134650D02*
X8520182Y-14144174D01*
X8520182Y-14144174D02*
X8501134Y-14153698D01*
X8501134Y-14153698D02*
X8463039Y-14153698D01*
X8463039Y-14153698D02*
X8443991Y-14163222D01*
X8443991Y-14163222D02*
X8434467Y-14172746D01*
X8434467Y-14172746D02*
X8424944Y-14191793D01*
X8424944Y-14191793D02*
X8424944Y-14229888D01*
X8424944Y-14229888D02*
X8434467Y-14248936D01*
X8434467Y-14248936D02*
X8443991Y-14258460D01*
X8443991Y-14258460D02*
X8463039Y-14267984D01*
X8463039Y-14267984D02*
X8501134Y-14267984D01*
X8501134Y-14267984D02*
X8520182Y-14258460D01*
X8520182Y-14258460D02*
X8529705Y-14248936D01*
X8529705Y-14248936D02*
X8539229Y-14229888D01*
X8539229Y-14229888D02*
X8539229Y-14191793D01*
X8539229Y-14191793D02*
X8529705Y-14172746D01*
X8529705Y-14172746D02*
X8520182Y-14163222D01*
X8520182Y-14163222D02*
X8501134Y-14153698D01*
X8634467Y-14267984D02*
X8672563Y-14267984D01*
X8672563Y-14267984D02*
X8691610Y-14258460D01*
X8691610Y-14258460D02*
X8701134Y-14248936D01*
X8701134Y-14248936D02*
X8720182Y-14220365D01*
X8720182Y-14220365D02*
X8729705Y-14182269D01*
X8729705Y-14182269D02*
X8729705Y-14106079D01*
X8729705Y-14106079D02*
X8720182Y-14087031D01*
X8720182Y-14087031D02*
X8710658Y-14077508D01*
X8710658Y-14077508D02*
X8691610Y-14067984D01*
X8691610Y-14067984D02*
X8653515Y-14067984D01*
X8653515Y-14067984D02*
X8634467Y-14077508D01*
X8634467Y-14077508D02*
X8624944Y-14087031D01*
X8624944Y-14087031D02*
X8615420Y-14106079D01*
X8615420Y-14106079D02*
X8615420Y-14153698D01*
X8615420Y-14153698D02*
X8624944Y-14172746D01*
X8624944Y-14172746D02*
X8634467Y-14182269D01*
X8634467Y-14182269D02*
X8653515Y-14191793D01*
X8653515Y-14191793D02*
X8691610Y-14191793D01*
X8691610Y-14191793D02*
X8710658Y-14182269D01*
X8710658Y-14182269D02*
X8720182Y-14172746D01*
X8720182Y-14172746D02*
X8729705Y-14153698D01*
X8815420Y-14267984D02*
X8815420Y-14134650D01*
X8815420Y-14153698D02*
X8824944Y-14144174D01*
X8824944Y-14144174D02*
X8843991Y-14134650D01*
X8843991Y-14134650D02*
X8872563Y-14134650D01*
X8872563Y-14134650D02*
X8891610Y-14144174D01*
X8891610Y-14144174D02*
X8901134Y-14163222D01*
X8901134Y-14163222D02*
X8901134Y-14267984D01*
X8901134Y-14163222D02*
X8910658Y-14144174D01*
X8910658Y-14144174D02*
X8929705Y-14134650D01*
X8929705Y-14134650D02*
X8958277Y-14134650D01*
X8958277Y-14134650D02*
X8977325Y-14144174D01*
X8977325Y-14144174D02*
X8986848Y-14163222D01*
X8986848Y-14163222D02*
X8986848Y-14267984D01*
X9082086Y-14267984D02*
X9082086Y-14134650D01*
X9082086Y-14153698D02*
X9091610Y-14144174D01*
X9091610Y-14144174D02*
X9110658Y-14134650D01*
X9110658Y-14134650D02*
X9139229Y-14134650D01*
X9139229Y-14134650D02*
X9158277Y-14144174D01*
X9158277Y-14144174D02*
X9167801Y-14163222D01*
X9167801Y-14163222D02*
X9167801Y-14267984D01*
X9167801Y-14163222D02*
X9177325Y-14144174D01*
X9177325Y-14144174D02*
X9196372Y-14134650D01*
X9196372Y-14134650D02*
X9224944Y-14134650D01*
X9224944Y-14134650D02*
X9243991Y-14144174D01*
X9243991Y-14144174D02*
X9253515Y-14163222D01*
X9253515Y-14163222D02*
X9253515Y-14267984D01*
X9643991Y-14058460D02*
X9472563Y-14315603D01*
X9901134Y-14067984D02*
X9920182Y-14067984D01*
X9920182Y-14067984D02*
X9939229Y-14077508D01*
X9939229Y-14077508D02*
X9948753Y-14087031D01*
X9948753Y-14087031D02*
X9958277Y-14106079D01*
X9958277Y-14106079D02*
X9967801Y-14144174D01*
X9967801Y-14144174D02*
X9967801Y-14191793D01*
X9967801Y-14191793D02*
X9958277Y-14229888D01*
X9958277Y-14229888D02*
X9948753Y-14248936D01*
X9948753Y-14248936D02*
X9939229Y-14258460D01*
X9939229Y-14258460D02*
X9920182Y-14267984D01*
X9920182Y-14267984D02*
X9901134Y-14267984D01*
X9901134Y-14267984D02*
X9882087Y-14258460D01*
X9882087Y-14258460D02*
X9872563Y-14248936D01*
X9872563Y-14248936D02*
X9863039Y-14229888D01*
X9863039Y-14229888D02*
X9853515Y-14191793D01*
X9853515Y-14191793D02*
X9853515Y-14144174D01*
X9853515Y-14144174D02*
X9863039Y-14106079D01*
X9863039Y-14106079D02*
X9872563Y-14087031D01*
X9872563Y-14087031D02*
X9882087Y-14077508D01*
X9882087Y-14077508D02*
X9901134Y-14067984D01*
X10053515Y-14248936D02*
X10063039Y-14258460D01*
X10063039Y-14258460D02*
X10053515Y-14267984D01*
X10053515Y-14267984D02*
X10043991Y-14258460D01*
X10043991Y-14258460D02*
X10053515Y-14248936D01*
X10053515Y-14248936D02*
X10053515Y-14267984D01*
X10186848Y-14067984D02*
X10205896Y-14067984D01*
X10205896Y-14067984D02*
X10224944Y-14077508D01*
X10224944Y-14077508D02*
X10234468Y-14087031D01*
X10234468Y-14087031D02*
X10243991Y-14106079D01*
X10243991Y-14106079D02*
X10253515Y-14144174D01*
X10253515Y-14144174D02*
X10253515Y-14191793D01*
X10253515Y-14191793D02*
X10243991Y-14229888D01*
X10243991Y-14229888D02*
X10234468Y-14248936D01*
X10234468Y-14248936D02*
X10224944Y-14258460D01*
X10224944Y-14258460D02*
X10205896Y-14267984D01*
X10205896Y-14267984D02*
X10186848Y-14267984D01*
X10186848Y-14267984D02*
X10167801Y-14258460D01*
X10167801Y-14258460D02*
X10158277Y-14248936D01*
X10158277Y-14248936D02*
X10148753Y-14229888D01*
X10148753Y-14229888D02*
X10139229Y-14191793D01*
X10139229Y-14191793D02*
X10139229Y-14144174D01*
X10139229Y-14144174D02*
X10148753Y-14106079D01*
X10148753Y-14106079D02*
X10158277Y-14087031D01*
X10158277Y-14087031D02*
X10167801Y-14077508D01*
X10167801Y-14077508D02*
X10186848Y-14067984D01*
X10320182Y-14067984D02*
X10443991Y-14067984D01*
X10443991Y-14067984D02*
X10377325Y-14144174D01*
X10377325Y-14144174D02*
X10405896Y-14144174D01*
X10405896Y-14144174D02*
X10424944Y-14153698D01*
X10424944Y-14153698D02*
X10434468Y-14163222D01*
X10434468Y-14163222D02*
X10443991Y-14182269D01*
X10443991Y-14182269D02*
X10443991Y-14229888D01*
X10443991Y-14229888D02*
X10434468Y-14248936D01*
X10434468Y-14248936D02*
X10424944Y-14258460D01*
X10424944Y-14258460D02*
X10405896Y-14267984D01*
X10405896Y-14267984D02*
X10348753Y-14267984D01*
X10348753Y-14267984D02*
X10329706Y-14258460D01*
X10329706Y-14258460D02*
X10320182Y-14248936D01*
X10624944Y-14067984D02*
X10529706Y-14067984D01*
X10529706Y-14067984D02*
X10520182Y-14163222D01*
X10520182Y-14163222D02*
X10529706Y-14153698D01*
X10529706Y-14153698D02*
X10548753Y-14144174D01*
X10548753Y-14144174D02*
X10596372Y-14144174D01*
X10596372Y-14144174D02*
X10615420Y-14153698D01*
X10615420Y-14153698D02*
X10624944Y-14163222D01*
X10624944Y-14163222D02*
X10634468Y-14182269D01*
X10634468Y-14182269D02*
X10634468Y-14229888D01*
X10634468Y-14229888D02*
X10624944Y-14248936D01*
X10624944Y-14248936D02*
X10615420Y-14258460D01*
X10615420Y-14258460D02*
X10596372Y-14267984D01*
X10596372Y-14267984D02*
X10548753Y-14267984D01*
X10548753Y-14267984D02*
X10529706Y-14258460D01*
X10529706Y-14258460D02*
X10520182Y-14248936D01*
X10758277Y-14067984D02*
X10777325Y-14067984D01*
X10777325Y-14067984D02*
X10796372Y-14077508D01*
X10796372Y-14077508D02*
X10805896Y-14087031D01*
X10805896Y-14087031D02*
X10815420Y-14106079D01*
X10815420Y-14106079D02*
X10824944Y-14144174D01*
X10824944Y-14144174D02*
X10824944Y-14191793D01*
X10824944Y-14191793D02*
X10815420Y-14229888D01*
X10815420Y-14229888D02*
X10805896Y-14248936D01*
X10805896Y-14248936D02*
X10796372Y-14258460D01*
X10796372Y-14258460D02*
X10777325Y-14267984D01*
X10777325Y-14267984D02*
X10758277Y-14267984D01*
X10758277Y-14267984D02*
X10739229Y-14258460D01*
X10739229Y-14258460D02*
X10729706Y-14248936D01*
X10729706Y-14248936D02*
X10720182Y-14229888D01*
X10720182Y-14229888D02*
X10710658Y-14191793D01*
X10710658Y-14191793D02*
X10710658Y-14144174D01*
X10710658Y-14144174D02*
X10720182Y-14106079D01*
X10720182Y-14106079D02*
X10729706Y-14087031D01*
X10729706Y-14087031D02*
X10739229Y-14077508D01*
X10739229Y-14077508D02*
X10758277Y-14067984D01*
X10901134Y-14067984D02*
X10901134Y-14106079D01*
X10977325Y-14067984D02*
X10977325Y-14106079D01*
X11272563Y-14344174D02*
X11263039Y-14334650D01*
X11263039Y-14334650D02*
X11243991Y-14306079D01*
X11243991Y-14306079D02*
X11234468Y-14287031D01*
X11234468Y-14287031D02*
X11224944Y-14258460D01*
X11224944Y-14258460D02*
X11215420Y-14210841D01*
X11215420Y-14210841D02*
X11215420Y-14172746D01*
X11215420Y-14172746D02*
X11224944Y-14125127D01*
X11224944Y-14125127D02*
X11234468Y-14096555D01*
X11234468Y-14096555D02*
X11243991Y-14077508D01*
X11243991Y-14077508D02*
X11263039Y-14048936D01*
X11263039Y-14048936D02*
X11272563Y-14039412D01*
X11453515Y-14267984D02*
X11339229Y-14267984D01*
X11396372Y-14267984D02*
X11396372Y-14067984D01*
X11396372Y-14067984D02*
X11377325Y-14096555D01*
X11377325Y-14096555D02*
X11358277Y-14115603D01*
X11358277Y-14115603D02*
X11339229Y-14125127D01*
X11624944Y-14134650D02*
X11624944Y-14267984D01*
X11577325Y-14058460D02*
X11529706Y-14201317D01*
X11529706Y-14201317D02*
X11653515Y-14201317D01*
X11882087Y-14267984D02*
X11882087Y-14067984D01*
X11967801Y-14267984D02*
X11967801Y-14163222D01*
X11967801Y-14163222D02*
X11958277Y-14144174D01*
X11958277Y-14144174D02*
X11939230Y-14134650D01*
X11939230Y-14134650D02*
X11910658Y-14134650D01*
X11910658Y-14134650D02*
X11891610Y-14144174D01*
X11891610Y-14144174D02*
X11882087Y-14153698D01*
X12091610Y-14267984D02*
X12072563Y-14258460D01*
X12072563Y-14258460D02*
X12063039Y-14248936D01*
X12063039Y-14248936D02*
X12053515Y-14229888D01*
X12053515Y-14229888D02*
X12053515Y-14172746D01*
X12053515Y-14172746D02*
X12063039Y-14153698D01*
X12063039Y-14153698D02*
X12072563Y-14144174D01*
X12072563Y-14144174D02*
X12091610Y-14134650D01*
X12091610Y-14134650D02*
X12120182Y-14134650D01*
X12120182Y-14134650D02*
X12139230Y-14144174D01*
X12139230Y-14144174D02*
X12148753Y-14153698D01*
X12148753Y-14153698D02*
X12158277Y-14172746D01*
X12158277Y-14172746D02*
X12158277Y-14229888D01*
X12158277Y-14229888D02*
X12148753Y-14248936D01*
X12148753Y-14248936D02*
X12139230Y-14258460D01*
X12139230Y-14258460D02*
X12120182Y-14267984D01*
X12120182Y-14267984D02*
X12091610Y-14267984D01*
X12272563Y-14267984D02*
X12253515Y-14258460D01*
X12253515Y-14258460D02*
X12243991Y-14239412D01*
X12243991Y-14239412D02*
X12243991Y-14067984D01*
X12424944Y-14258460D02*
X12405896Y-14267984D01*
X12405896Y-14267984D02*
X12367801Y-14267984D01*
X12367801Y-14267984D02*
X12348753Y-14258460D01*
X12348753Y-14258460D02*
X12339230Y-14239412D01*
X12339230Y-14239412D02*
X12339230Y-14163222D01*
X12339230Y-14163222D02*
X12348753Y-14144174D01*
X12348753Y-14144174D02*
X12367801Y-14134650D01*
X12367801Y-14134650D02*
X12405896Y-14134650D01*
X12405896Y-14134650D02*
X12424944Y-14144174D01*
X12424944Y-14144174D02*
X12434468Y-14163222D01*
X12434468Y-14163222D02*
X12434468Y-14182269D01*
X12434468Y-14182269D02*
X12339230Y-14201317D01*
X12510658Y-14258460D02*
X12529706Y-14267984D01*
X12529706Y-14267984D02*
X12567801Y-14267984D01*
X12567801Y-14267984D02*
X12586849Y-14258460D01*
X12586849Y-14258460D02*
X12596372Y-14239412D01*
X12596372Y-14239412D02*
X12596372Y-14229888D01*
X12596372Y-14229888D02*
X12586849Y-14210841D01*
X12586849Y-14210841D02*
X12567801Y-14201317D01*
X12567801Y-14201317D02*
X12539230Y-14201317D01*
X12539230Y-14201317D02*
X12520182Y-14191793D01*
X12520182Y-14191793D02*
X12510658Y-14172746D01*
X12510658Y-14172746D02*
X12510658Y-14163222D01*
X12510658Y-14163222D02*
X12520182Y-14144174D01*
X12520182Y-14144174D02*
X12539230Y-14134650D01*
X12539230Y-14134650D02*
X12567801Y-14134650D01*
X12567801Y-14134650D02*
X12586849Y-14144174D01*
X12663039Y-14344174D02*
X12672563Y-14334650D01*
X12672563Y-14334650D02*
X12691611Y-14306079D01*
X12691611Y-14306079D02*
X12701134Y-14287031D01*
X12701134Y-14287031D02*
X12710658Y-14258460D01*
X12710658Y-14258460D02*
X12720182Y-14210841D01*
X12720182Y-14210841D02*
X12720182Y-14172746D01*
X12720182Y-14172746D02*
X12710658Y-14125127D01*
X12710658Y-14125127D02*
X12701134Y-14096555D01*
X12701134Y-14096555D02*
X12691611Y-14077508D01*
X12691611Y-14077508D02*
X12672563Y-14048936D01*
X12672563Y-14048936D02*
X12663039Y-14039412D01*
D12*
X7647500Y-14390500D02*
X7647500Y-14490500D01*
X7597500Y-14440500D02*
X7697500Y-14440500D01*
D11*
X8063039Y-14531984D02*
X7948753Y-14531984D01*
X8005896Y-14531984D02*
X8005896Y-14331984D01*
X8005896Y-14331984D02*
X7986848Y-14360555D01*
X7986848Y-14360555D02*
X7967801Y-14379603D01*
X7967801Y-14379603D02*
X7948753Y-14389127D01*
X8148753Y-14512936D02*
X8158277Y-14522460D01*
X8158277Y-14522460D02*
X8148753Y-14531984D01*
X8148753Y-14531984D02*
X8139229Y-14522460D01*
X8139229Y-14522460D02*
X8148753Y-14512936D01*
X8148753Y-14512936D02*
X8148753Y-14531984D01*
X8282086Y-14331984D02*
X8301134Y-14331984D01*
X8301134Y-14331984D02*
X8320182Y-14341508D01*
X8320182Y-14341508D02*
X8329705Y-14351031D01*
X8329705Y-14351031D02*
X8339229Y-14370079D01*
X8339229Y-14370079D02*
X8348753Y-14408174D01*
X8348753Y-14408174D02*
X8348753Y-14455793D01*
X8348753Y-14455793D02*
X8339229Y-14493888D01*
X8339229Y-14493888D02*
X8329705Y-14512936D01*
X8329705Y-14512936D02*
X8320182Y-14522460D01*
X8320182Y-14522460D02*
X8301134Y-14531984D01*
X8301134Y-14531984D02*
X8282086Y-14531984D01*
X8282086Y-14531984D02*
X8263039Y-14522460D01*
X8263039Y-14522460D02*
X8253515Y-14512936D01*
X8253515Y-14512936D02*
X8243991Y-14493888D01*
X8243991Y-14493888D02*
X8234467Y-14455793D01*
X8234467Y-14455793D02*
X8234467Y-14408174D01*
X8234467Y-14408174D02*
X8243991Y-14370079D01*
X8243991Y-14370079D02*
X8253515Y-14351031D01*
X8253515Y-14351031D02*
X8263039Y-14341508D01*
X8263039Y-14341508D02*
X8282086Y-14331984D01*
X8472563Y-14331984D02*
X8491610Y-14331984D01*
X8491610Y-14331984D02*
X8510658Y-14341508D01*
X8510658Y-14341508D02*
X8520182Y-14351031D01*
X8520182Y-14351031D02*
X8529705Y-14370079D01*
X8529705Y-14370079D02*
X8539229Y-14408174D01*
X8539229Y-14408174D02*
X8539229Y-14455793D01*
X8539229Y-14455793D02*
X8529705Y-14493888D01*
X8529705Y-14493888D02*
X8520182Y-14512936D01*
X8520182Y-14512936D02*
X8510658Y-14522460D01*
X8510658Y-14522460D02*
X8491610Y-14531984D01*
X8491610Y-14531984D02*
X8472563Y-14531984D01*
X8472563Y-14531984D02*
X8453515Y-14522460D01*
X8453515Y-14522460D02*
X8443991Y-14512936D01*
X8443991Y-14512936D02*
X8434467Y-14493888D01*
X8434467Y-14493888D02*
X8424944Y-14455793D01*
X8424944Y-14455793D02*
X8424944Y-14408174D01*
X8424944Y-14408174D02*
X8434467Y-14370079D01*
X8434467Y-14370079D02*
X8443991Y-14351031D01*
X8443991Y-14351031D02*
X8453515Y-14341508D01*
X8453515Y-14341508D02*
X8472563Y-14331984D01*
X8663039Y-14331984D02*
X8682086Y-14331984D01*
X8682086Y-14331984D02*
X8701134Y-14341508D01*
X8701134Y-14341508D02*
X8710658Y-14351031D01*
X8710658Y-14351031D02*
X8720182Y-14370079D01*
X8720182Y-14370079D02*
X8729705Y-14408174D01*
X8729705Y-14408174D02*
X8729705Y-14455793D01*
X8729705Y-14455793D02*
X8720182Y-14493888D01*
X8720182Y-14493888D02*
X8710658Y-14512936D01*
X8710658Y-14512936D02*
X8701134Y-14522460D01*
X8701134Y-14522460D02*
X8682086Y-14531984D01*
X8682086Y-14531984D02*
X8663039Y-14531984D01*
X8663039Y-14531984D02*
X8643991Y-14522460D01*
X8643991Y-14522460D02*
X8634467Y-14512936D01*
X8634467Y-14512936D02*
X8624944Y-14493888D01*
X8624944Y-14493888D02*
X8615420Y-14455793D01*
X8615420Y-14455793D02*
X8615420Y-14408174D01*
X8615420Y-14408174D02*
X8624944Y-14370079D01*
X8624944Y-14370079D02*
X8634467Y-14351031D01*
X8634467Y-14351031D02*
X8643991Y-14341508D01*
X8643991Y-14341508D02*
X8663039Y-14331984D01*
X8815420Y-14531984D02*
X8815420Y-14398650D01*
X8815420Y-14417698D02*
X8824944Y-14408174D01*
X8824944Y-14408174D02*
X8843991Y-14398650D01*
X8843991Y-14398650D02*
X8872563Y-14398650D01*
X8872563Y-14398650D02*
X8891610Y-14408174D01*
X8891610Y-14408174D02*
X8901134Y-14427222D01*
X8901134Y-14427222D02*
X8901134Y-14531984D01*
X8901134Y-14427222D02*
X8910658Y-14408174D01*
X8910658Y-14408174D02*
X8929705Y-14398650D01*
X8929705Y-14398650D02*
X8958277Y-14398650D01*
X8958277Y-14398650D02*
X8977325Y-14408174D01*
X8977325Y-14408174D02*
X8986848Y-14427222D01*
X8986848Y-14427222D02*
X8986848Y-14531984D01*
X9082086Y-14531984D02*
X9082086Y-14398650D01*
X9082086Y-14417698D02*
X9091610Y-14408174D01*
X9091610Y-14408174D02*
X9110658Y-14398650D01*
X9110658Y-14398650D02*
X9139229Y-14398650D01*
X9139229Y-14398650D02*
X9158277Y-14408174D01*
X9158277Y-14408174D02*
X9167801Y-14427222D01*
X9167801Y-14427222D02*
X9167801Y-14531984D01*
X9167801Y-14427222D02*
X9177325Y-14408174D01*
X9177325Y-14408174D02*
X9196372Y-14398650D01*
X9196372Y-14398650D02*
X9224944Y-14398650D01*
X9224944Y-14398650D02*
X9243991Y-14408174D01*
X9243991Y-14408174D02*
X9253515Y-14427222D01*
X9253515Y-14427222D02*
X9253515Y-14531984D01*
X9643991Y-14322460D02*
X9472563Y-14579603D01*
X9901134Y-14331984D02*
X9920182Y-14331984D01*
X9920182Y-14331984D02*
X9939229Y-14341508D01*
X9939229Y-14341508D02*
X9948753Y-14351031D01*
X9948753Y-14351031D02*
X9958277Y-14370079D01*
X9958277Y-14370079D02*
X9967801Y-14408174D01*
X9967801Y-14408174D02*
X9967801Y-14455793D01*
X9967801Y-14455793D02*
X9958277Y-14493888D01*
X9958277Y-14493888D02*
X9948753Y-14512936D01*
X9948753Y-14512936D02*
X9939229Y-14522460D01*
X9939229Y-14522460D02*
X9920182Y-14531984D01*
X9920182Y-14531984D02*
X9901134Y-14531984D01*
X9901134Y-14531984D02*
X9882087Y-14522460D01*
X9882087Y-14522460D02*
X9872563Y-14512936D01*
X9872563Y-14512936D02*
X9863039Y-14493888D01*
X9863039Y-14493888D02*
X9853515Y-14455793D01*
X9853515Y-14455793D02*
X9853515Y-14408174D01*
X9853515Y-14408174D02*
X9863039Y-14370079D01*
X9863039Y-14370079D02*
X9872563Y-14351031D01*
X9872563Y-14351031D02*
X9882087Y-14341508D01*
X9882087Y-14341508D02*
X9901134Y-14331984D01*
X10053515Y-14512936D02*
X10063039Y-14522460D01*
X10063039Y-14522460D02*
X10053515Y-14531984D01*
X10053515Y-14531984D02*
X10043991Y-14522460D01*
X10043991Y-14522460D02*
X10053515Y-14512936D01*
X10053515Y-14512936D02*
X10053515Y-14531984D01*
X10186848Y-14331984D02*
X10205896Y-14331984D01*
X10205896Y-14331984D02*
X10224944Y-14341508D01*
X10224944Y-14341508D02*
X10234468Y-14351031D01*
X10234468Y-14351031D02*
X10243991Y-14370079D01*
X10243991Y-14370079D02*
X10253515Y-14408174D01*
X10253515Y-14408174D02*
X10253515Y-14455793D01*
X10253515Y-14455793D02*
X10243991Y-14493888D01*
X10243991Y-14493888D02*
X10234468Y-14512936D01*
X10234468Y-14512936D02*
X10224944Y-14522460D01*
X10224944Y-14522460D02*
X10205896Y-14531984D01*
X10205896Y-14531984D02*
X10186848Y-14531984D01*
X10186848Y-14531984D02*
X10167801Y-14522460D01*
X10167801Y-14522460D02*
X10158277Y-14512936D01*
X10158277Y-14512936D02*
X10148753Y-14493888D01*
X10148753Y-14493888D02*
X10139229Y-14455793D01*
X10139229Y-14455793D02*
X10139229Y-14408174D01*
X10139229Y-14408174D02*
X10148753Y-14370079D01*
X10148753Y-14370079D02*
X10158277Y-14351031D01*
X10158277Y-14351031D02*
X10167801Y-14341508D01*
X10167801Y-14341508D02*
X10186848Y-14331984D01*
X10320182Y-14331984D02*
X10443991Y-14331984D01*
X10443991Y-14331984D02*
X10377325Y-14408174D01*
X10377325Y-14408174D02*
X10405896Y-14408174D01*
X10405896Y-14408174D02*
X10424944Y-14417698D01*
X10424944Y-14417698D02*
X10434468Y-14427222D01*
X10434468Y-14427222D02*
X10443991Y-14446269D01*
X10443991Y-14446269D02*
X10443991Y-14493888D01*
X10443991Y-14493888D02*
X10434468Y-14512936D01*
X10434468Y-14512936D02*
X10424944Y-14522460D01*
X10424944Y-14522460D02*
X10405896Y-14531984D01*
X10405896Y-14531984D02*
X10348753Y-14531984D01*
X10348753Y-14531984D02*
X10329706Y-14522460D01*
X10329706Y-14522460D02*
X10320182Y-14512936D01*
X10539229Y-14531984D02*
X10577325Y-14531984D01*
X10577325Y-14531984D02*
X10596372Y-14522460D01*
X10596372Y-14522460D02*
X10605896Y-14512936D01*
X10605896Y-14512936D02*
X10624944Y-14484365D01*
X10624944Y-14484365D02*
X10634468Y-14446269D01*
X10634468Y-14446269D02*
X10634468Y-14370079D01*
X10634468Y-14370079D02*
X10624944Y-14351031D01*
X10624944Y-14351031D02*
X10615420Y-14341508D01*
X10615420Y-14341508D02*
X10596372Y-14331984D01*
X10596372Y-14331984D02*
X10558277Y-14331984D01*
X10558277Y-14331984D02*
X10539229Y-14341508D01*
X10539229Y-14341508D02*
X10529706Y-14351031D01*
X10529706Y-14351031D02*
X10520182Y-14370079D01*
X10520182Y-14370079D02*
X10520182Y-14417698D01*
X10520182Y-14417698D02*
X10529706Y-14436746D01*
X10529706Y-14436746D02*
X10539229Y-14446269D01*
X10539229Y-14446269D02*
X10558277Y-14455793D01*
X10558277Y-14455793D02*
X10596372Y-14455793D01*
X10596372Y-14455793D02*
X10615420Y-14446269D01*
X10615420Y-14446269D02*
X10624944Y-14436746D01*
X10624944Y-14436746D02*
X10634468Y-14417698D01*
X10805896Y-14398650D02*
X10805896Y-14531984D01*
X10758277Y-14322460D02*
X10710658Y-14465317D01*
X10710658Y-14465317D02*
X10834468Y-14465317D01*
X10901134Y-14331984D02*
X10901134Y-14370079D01*
X10977325Y-14331984D02*
X10977325Y-14370079D01*
X11272563Y-14608174D02*
X11263039Y-14598650D01*
X11263039Y-14598650D02*
X11243991Y-14570079D01*
X11243991Y-14570079D02*
X11234468Y-14551031D01*
X11234468Y-14551031D02*
X11224944Y-14522460D01*
X11224944Y-14522460D02*
X11215420Y-14474841D01*
X11215420Y-14474841D02*
X11215420Y-14436746D01*
X11215420Y-14436746D02*
X11224944Y-14389127D01*
X11224944Y-14389127D02*
X11234468Y-14360555D01*
X11234468Y-14360555D02*
X11243991Y-14341508D01*
X11243991Y-14341508D02*
X11263039Y-14312936D01*
X11263039Y-14312936D02*
X11272563Y-14303412D01*
X11358277Y-14531984D02*
X11396372Y-14531984D01*
X11396372Y-14531984D02*
X11415420Y-14522460D01*
X11415420Y-14522460D02*
X11424944Y-14512936D01*
X11424944Y-14512936D02*
X11443991Y-14484365D01*
X11443991Y-14484365D02*
X11453515Y-14446269D01*
X11453515Y-14446269D02*
X11453515Y-14370079D01*
X11453515Y-14370079D02*
X11443991Y-14351031D01*
X11443991Y-14351031D02*
X11434468Y-14341508D01*
X11434468Y-14341508D02*
X11415420Y-14331984D01*
X11415420Y-14331984D02*
X11377325Y-14331984D01*
X11377325Y-14331984D02*
X11358277Y-14341508D01*
X11358277Y-14341508D02*
X11348753Y-14351031D01*
X11348753Y-14351031D02*
X11339229Y-14370079D01*
X11339229Y-14370079D02*
X11339229Y-14417698D01*
X11339229Y-14417698D02*
X11348753Y-14436746D01*
X11348753Y-14436746D02*
X11358277Y-14446269D01*
X11358277Y-14446269D02*
X11377325Y-14455793D01*
X11377325Y-14455793D02*
X11415420Y-14455793D01*
X11415420Y-14455793D02*
X11434468Y-14446269D01*
X11434468Y-14446269D02*
X11443991Y-14436746D01*
X11443991Y-14436746D02*
X11453515Y-14417698D01*
X11691610Y-14531984D02*
X11691610Y-14331984D01*
X11777325Y-14531984D02*
X11777325Y-14427222D01*
X11777325Y-14427222D02*
X11767801Y-14408174D01*
X11767801Y-14408174D02*
X11748753Y-14398650D01*
X11748753Y-14398650D02*
X11720182Y-14398650D01*
X11720182Y-14398650D02*
X11701134Y-14408174D01*
X11701134Y-14408174D02*
X11691610Y-14417698D01*
X11901134Y-14531984D02*
X11882087Y-14522460D01*
X11882087Y-14522460D02*
X11872563Y-14512936D01*
X11872563Y-14512936D02*
X11863039Y-14493888D01*
X11863039Y-14493888D02*
X11863039Y-14436746D01*
X11863039Y-14436746D02*
X11872563Y-14417698D01*
X11872563Y-14417698D02*
X11882087Y-14408174D01*
X11882087Y-14408174D02*
X11901134Y-14398650D01*
X11901134Y-14398650D02*
X11929706Y-14398650D01*
X11929706Y-14398650D02*
X11948753Y-14408174D01*
X11948753Y-14408174D02*
X11958277Y-14417698D01*
X11958277Y-14417698D02*
X11967801Y-14436746D01*
X11967801Y-14436746D02*
X11967801Y-14493888D01*
X11967801Y-14493888D02*
X11958277Y-14512936D01*
X11958277Y-14512936D02*
X11948753Y-14522460D01*
X11948753Y-14522460D02*
X11929706Y-14531984D01*
X11929706Y-14531984D02*
X11901134Y-14531984D01*
X12082087Y-14531984D02*
X12063039Y-14522460D01*
X12063039Y-14522460D02*
X12053515Y-14503412D01*
X12053515Y-14503412D02*
X12053515Y-14331984D01*
X12234468Y-14522460D02*
X12215420Y-14531984D01*
X12215420Y-14531984D02*
X12177325Y-14531984D01*
X12177325Y-14531984D02*
X12158277Y-14522460D01*
X12158277Y-14522460D02*
X12148753Y-14503412D01*
X12148753Y-14503412D02*
X12148753Y-14427222D01*
X12148753Y-14427222D02*
X12158277Y-14408174D01*
X12158277Y-14408174D02*
X12177325Y-14398650D01*
X12177325Y-14398650D02*
X12215420Y-14398650D01*
X12215420Y-14398650D02*
X12234468Y-14408174D01*
X12234468Y-14408174D02*
X12243991Y-14427222D01*
X12243991Y-14427222D02*
X12243991Y-14446269D01*
X12243991Y-14446269D02*
X12148753Y-14465317D01*
X12320182Y-14522460D02*
X12339230Y-14531984D01*
X12339230Y-14531984D02*
X12377325Y-14531984D01*
X12377325Y-14531984D02*
X12396372Y-14522460D01*
X12396372Y-14522460D02*
X12405896Y-14503412D01*
X12405896Y-14503412D02*
X12405896Y-14493888D01*
X12405896Y-14493888D02*
X12396372Y-14474841D01*
X12396372Y-14474841D02*
X12377325Y-14465317D01*
X12377325Y-14465317D02*
X12348753Y-14465317D01*
X12348753Y-14465317D02*
X12329706Y-14455793D01*
X12329706Y-14455793D02*
X12320182Y-14436746D01*
X12320182Y-14436746D02*
X12320182Y-14427222D01*
X12320182Y-14427222D02*
X12329706Y-14408174D01*
X12329706Y-14408174D02*
X12348753Y-14398650D01*
X12348753Y-14398650D02*
X12377325Y-14398650D01*
X12377325Y-14398650D02*
X12396372Y-14408174D01*
X12472563Y-14608174D02*
X12482087Y-14598650D01*
X12482087Y-14598650D02*
X12501134Y-14570079D01*
X12501134Y-14570079D02*
X12510658Y-14551031D01*
X12510658Y-14551031D02*
X12520182Y-14522460D01*
X12520182Y-14522460D02*
X12529706Y-14474841D01*
X12529706Y-14474841D02*
X12529706Y-14436746D01*
X12529706Y-14436746D02*
X12520182Y-14389127D01*
X12520182Y-14389127D02*
X12510658Y-14360555D01*
X12510658Y-14360555D02*
X12501134Y-14341508D01*
X12501134Y-14341508D02*
X12482087Y-14312936D01*
X12482087Y-14312936D02*
X12472563Y-14303412D01*
D13*
X7675533Y-14757533D02*
X7675533Y-14651466D01*
X7569466Y-14651466D01*
X7569466Y-14757533D01*
X7675533Y-14757533D01*
D11*
X8063039Y-14795984D02*
X7948753Y-14795984D01*
X8005896Y-14795984D02*
X8005896Y-14595984D01*
X8005896Y-14595984D02*
X7986848Y-14624555D01*
X7986848Y-14624555D02*
X7967801Y-14643603D01*
X7967801Y-14643603D02*
X7948753Y-14653127D01*
X8148753Y-14776936D02*
X8158277Y-14786460D01*
X8158277Y-14786460D02*
X8148753Y-14795984D01*
X8148753Y-14795984D02*
X8139229Y-14786460D01*
X8139229Y-14786460D02*
X8148753Y-14776936D01*
X8148753Y-14776936D02*
X8148753Y-14795984D01*
X8339229Y-14595984D02*
X8243991Y-14595984D01*
X8243991Y-14595984D02*
X8234467Y-14691222D01*
X8234467Y-14691222D02*
X8243991Y-14681698D01*
X8243991Y-14681698D02*
X8263039Y-14672174D01*
X8263039Y-14672174D02*
X8310658Y-14672174D01*
X8310658Y-14672174D02*
X8329705Y-14681698D01*
X8329705Y-14681698D02*
X8339229Y-14691222D01*
X8339229Y-14691222D02*
X8348753Y-14710269D01*
X8348753Y-14710269D02*
X8348753Y-14757888D01*
X8348753Y-14757888D02*
X8339229Y-14776936D01*
X8339229Y-14776936D02*
X8329705Y-14786460D01*
X8329705Y-14786460D02*
X8310658Y-14795984D01*
X8310658Y-14795984D02*
X8263039Y-14795984D01*
X8263039Y-14795984D02*
X8243991Y-14786460D01*
X8243991Y-14786460D02*
X8234467Y-14776936D01*
X8472563Y-14595984D02*
X8491610Y-14595984D01*
X8491610Y-14595984D02*
X8510658Y-14605508D01*
X8510658Y-14605508D02*
X8520182Y-14615031D01*
X8520182Y-14615031D02*
X8529705Y-14634079D01*
X8529705Y-14634079D02*
X8539229Y-14672174D01*
X8539229Y-14672174D02*
X8539229Y-14719793D01*
X8539229Y-14719793D02*
X8529705Y-14757888D01*
X8529705Y-14757888D02*
X8520182Y-14776936D01*
X8520182Y-14776936D02*
X8510658Y-14786460D01*
X8510658Y-14786460D02*
X8491610Y-14795984D01*
X8491610Y-14795984D02*
X8472563Y-14795984D01*
X8472563Y-14795984D02*
X8453515Y-14786460D01*
X8453515Y-14786460D02*
X8443991Y-14776936D01*
X8443991Y-14776936D02*
X8434467Y-14757888D01*
X8434467Y-14757888D02*
X8424944Y-14719793D01*
X8424944Y-14719793D02*
X8424944Y-14672174D01*
X8424944Y-14672174D02*
X8434467Y-14634079D01*
X8434467Y-14634079D02*
X8443991Y-14615031D01*
X8443991Y-14615031D02*
X8453515Y-14605508D01*
X8453515Y-14605508D02*
X8472563Y-14595984D01*
X8663039Y-14595984D02*
X8682086Y-14595984D01*
X8682086Y-14595984D02*
X8701134Y-14605508D01*
X8701134Y-14605508D02*
X8710658Y-14615031D01*
X8710658Y-14615031D02*
X8720182Y-14634079D01*
X8720182Y-14634079D02*
X8729705Y-14672174D01*
X8729705Y-14672174D02*
X8729705Y-14719793D01*
X8729705Y-14719793D02*
X8720182Y-14757888D01*
X8720182Y-14757888D02*
X8710658Y-14776936D01*
X8710658Y-14776936D02*
X8701134Y-14786460D01*
X8701134Y-14786460D02*
X8682086Y-14795984D01*
X8682086Y-14795984D02*
X8663039Y-14795984D01*
X8663039Y-14795984D02*
X8643991Y-14786460D01*
X8643991Y-14786460D02*
X8634467Y-14776936D01*
X8634467Y-14776936D02*
X8624944Y-14757888D01*
X8624944Y-14757888D02*
X8615420Y-14719793D01*
X8615420Y-14719793D02*
X8615420Y-14672174D01*
X8615420Y-14672174D02*
X8624944Y-14634079D01*
X8624944Y-14634079D02*
X8634467Y-14615031D01*
X8634467Y-14615031D02*
X8643991Y-14605508D01*
X8643991Y-14605508D02*
X8663039Y-14595984D01*
X8815420Y-14795984D02*
X8815420Y-14662650D01*
X8815420Y-14681698D02*
X8824944Y-14672174D01*
X8824944Y-14672174D02*
X8843991Y-14662650D01*
X8843991Y-14662650D02*
X8872563Y-14662650D01*
X8872563Y-14662650D02*
X8891610Y-14672174D01*
X8891610Y-14672174D02*
X8901134Y-14691222D01*
X8901134Y-14691222D02*
X8901134Y-14795984D01*
X8901134Y-14691222D02*
X8910658Y-14672174D01*
X8910658Y-14672174D02*
X8929705Y-14662650D01*
X8929705Y-14662650D02*
X8958277Y-14662650D01*
X8958277Y-14662650D02*
X8977325Y-14672174D01*
X8977325Y-14672174D02*
X8986848Y-14691222D01*
X8986848Y-14691222D02*
X8986848Y-14795984D01*
X9082086Y-14795984D02*
X9082086Y-14662650D01*
X9082086Y-14681698D02*
X9091610Y-14672174D01*
X9091610Y-14672174D02*
X9110658Y-14662650D01*
X9110658Y-14662650D02*
X9139229Y-14662650D01*
X9139229Y-14662650D02*
X9158277Y-14672174D01*
X9158277Y-14672174D02*
X9167801Y-14691222D01*
X9167801Y-14691222D02*
X9167801Y-14795984D01*
X9167801Y-14691222D02*
X9177325Y-14672174D01*
X9177325Y-14672174D02*
X9196372Y-14662650D01*
X9196372Y-14662650D02*
X9224944Y-14662650D01*
X9224944Y-14662650D02*
X9243991Y-14672174D01*
X9243991Y-14672174D02*
X9253515Y-14691222D01*
X9253515Y-14691222D02*
X9253515Y-14795984D01*
X9643991Y-14586460D02*
X9472563Y-14843603D01*
X9901134Y-14595984D02*
X9920182Y-14595984D01*
X9920182Y-14595984D02*
X9939229Y-14605508D01*
X9939229Y-14605508D02*
X9948753Y-14615031D01*
X9948753Y-14615031D02*
X9958277Y-14634079D01*
X9958277Y-14634079D02*
X9967801Y-14672174D01*
X9967801Y-14672174D02*
X9967801Y-14719793D01*
X9967801Y-14719793D02*
X9958277Y-14757888D01*
X9958277Y-14757888D02*
X9948753Y-14776936D01*
X9948753Y-14776936D02*
X9939229Y-14786460D01*
X9939229Y-14786460D02*
X9920182Y-14795984D01*
X9920182Y-14795984D02*
X9901134Y-14795984D01*
X9901134Y-14795984D02*
X9882087Y-14786460D01*
X9882087Y-14786460D02*
X9872563Y-14776936D01*
X9872563Y-14776936D02*
X9863039Y-14757888D01*
X9863039Y-14757888D02*
X9853515Y-14719793D01*
X9853515Y-14719793D02*
X9853515Y-14672174D01*
X9853515Y-14672174D02*
X9863039Y-14634079D01*
X9863039Y-14634079D02*
X9872563Y-14615031D01*
X9872563Y-14615031D02*
X9882087Y-14605508D01*
X9882087Y-14605508D02*
X9901134Y-14595984D01*
X10053515Y-14776936D02*
X10063039Y-14786460D01*
X10063039Y-14786460D02*
X10053515Y-14795984D01*
X10053515Y-14795984D02*
X10043991Y-14786460D01*
X10043991Y-14786460D02*
X10053515Y-14776936D01*
X10053515Y-14776936D02*
X10053515Y-14795984D01*
X10186848Y-14595984D02*
X10205896Y-14595984D01*
X10205896Y-14595984D02*
X10224944Y-14605508D01*
X10224944Y-14605508D02*
X10234468Y-14615031D01*
X10234468Y-14615031D02*
X10243991Y-14634079D01*
X10243991Y-14634079D02*
X10253515Y-14672174D01*
X10253515Y-14672174D02*
X10253515Y-14719793D01*
X10253515Y-14719793D02*
X10243991Y-14757888D01*
X10243991Y-14757888D02*
X10234468Y-14776936D01*
X10234468Y-14776936D02*
X10224944Y-14786460D01*
X10224944Y-14786460D02*
X10205896Y-14795984D01*
X10205896Y-14795984D02*
X10186848Y-14795984D01*
X10186848Y-14795984D02*
X10167801Y-14786460D01*
X10167801Y-14786460D02*
X10158277Y-14776936D01*
X10158277Y-14776936D02*
X10148753Y-14757888D01*
X10148753Y-14757888D02*
X10139229Y-14719793D01*
X10139229Y-14719793D02*
X10139229Y-14672174D01*
X10139229Y-14672174D02*
X10148753Y-14634079D01*
X10148753Y-14634079D02*
X10158277Y-14615031D01*
X10158277Y-14615031D02*
X10167801Y-14605508D01*
X10167801Y-14605508D02*
X10186848Y-14595984D01*
X10434468Y-14595984D02*
X10339229Y-14595984D01*
X10339229Y-14595984D02*
X10329706Y-14691222D01*
X10329706Y-14691222D02*
X10339229Y-14681698D01*
X10339229Y-14681698D02*
X10358277Y-14672174D01*
X10358277Y-14672174D02*
X10405896Y-14672174D01*
X10405896Y-14672174D02*
X10424944Y-14681698D01*
X10424944Y-14681698D02*
X10434468Y-14691222D01*
X10434468Y-14691222D02*
X10443991Y-14710269D01*
X10443991Y-14710269D02*
X10443991Y-14757888D01*
X10443991Y-14757888D02*
X10434468Y-14776936D01*
X10434468Y-14776936D02*
X10424944Y-14786460D01*
X10424944Y-14786460D02*
X10405896Y-14795984D01*
X10405896Y-14795984D02*
X10358277Y-14795984D01*
X10358277Y-14795984D02*
X10339229Y-14786460D01*
X10339229Y-14786460D02*
X10329706Y-14776936D01*
X10539229Y-14795984D02*
X10577325Y-14795984D01*
X10577325Y-14795984D02*
X10596372Y-14786460D01*
X10596372Y-14786460D02*
X10605896Y-14776936D01*
X10605896Y-14776936D02*
X10624944Y-14748365D01*
X10624944Y-14748365D02*
X10634468Y-14710269D01*
X10634468Y-14710269D02*
X10634468Y-14634079D01*
X10634468Y-14634079D02*
X10624944Y-14615031D01*
X10624944Y-14615031D02*
X10615420Y-14605508D01*
X10615420Y-14605508D02*
X10596372Y-14595984D01*
X10596372Y-14595984D02*
X10558277Y-14595984D01*
X10558277Y-14595984D02*
X10539229Y-14605508D01*
X10539229Y-14605508D02*
X10529706Y-14615031D01*
X10529706Y-14615031D02*
X10520182Y-14634079D01*
X10520182Y-14634079D02*
X10520182Y-14681698D01*
X10520182Y-14681698D02*
X10529706Y-14700746D01*
X10529706Y-14700746D02*
X10539229Y-14710269D01*
X10539229Y-14710269D02*
X10558277Y-14719793D01*
X10558277Y-14719793D02*
X10596372Y-14719793D01*
X10596372Y-14719793D02*
X10615420Y-14710269D01*
X10615420Y-14710269D02*
X10624944Y-14700746D01*
X10624944Y-14700746D02*
X10634468Y-14681698D01*
X10824944Y-14795984D02*
X10710658Y-14795984D01*
X10767801Y-14795984D02*
X10767801Y-14595984D01*
X10767801Y-14595984D02*
X10748753Y-14624555D01*
X10748753Y-14624555D02*
X10729706Y-14643603D01*
X10729706Y-14643603D02*
X10710658Y-14653127D01*
X10901134Y-14595984D02*
X10901134Y-14634079D01*
X10977325Y-14595984D02*
X10977325Y-14634079D01*
X11272563Y-14872174D02*
X11263039Y-14862650D01*
X11263039Y-14862650D02*
X11243991Y-14834079D01*
X11243991Y-14834079D02*
X11234468Y-14815031D01*
X11234468Y-14815031D02*
X11224944Y-14786460D01*
X11224944Y-14786460D02*
X11215420Y-14738841D01*
X11215420Y-14738841D02*
X11215420Y-14700746D01*
X11215420Y-14700746D02*
X11224944Y-14653127D01*
X11224944Y-14653127D02*
X11234468Y-14624555D01*
X11234468Y-14624555D02*
X11243991Y-14605508D01*
X11243991Y-14605508D02*
X11263039Y-14576936D01*
X11263039Y-14576936D02*
X11272563Y-14567412D01*
X11453515Y-14795984D02*
X11339229Y-14795984D01*
X11396372Y-14795984D02*
X11396372Y-14595984D01*
X11396372Y-14595984D02*
X11377325Y-14624555D01*
X11377325Y-14624555D02*
X11358277Y-14643603D01*
X11358277Y-14643603D02*
X11339229Y-14653127D01*
X11529706Y-14615031D02*
X11539229Y-14605508D01*
X11539229Y-14605508D02*
X11558277Y-14595984D01*
X11558277Y-14595984D02*
X11605896Y-14595984D01*
X11605896Y-14595984D02*
X11624944Y-14605508D01*
X11624944Y-14605508D02*
X11634468Y-14615031D01*
X11634468Y-14615031D02*
X11643991Y-14634079D01*
X11643991Y-14634079D02*
X11643991Y-14653127D01*
X11643991Y-14653127D02*
X11634468Y-14681698D01*
X11634468Y-14681698D02*
X11520182Y-14795984D01*
X11520182Y-14795984D02*
X11643991Y-14795984D01*
X11882087Y-14795984D02*
X11882087Y-14595984D01*
X11967801Y-14795984D02*
X11967801Y-14691222D01*
X11967801Y-14691222D02*
X11958277Y-14672174D01*
X11958277Y-14672174D02*
X11939230Y-14662650D01*
X11939230Y-14662650D02*
X11910658Y-14662650D01*
X11910658Y-14662650D02*
X11891610Y-14672174D01*
X11891610Y-14672174D02*
X11882087Y-14681698D01*
X12091610Y-14795984D02*
X12072563Y-14786460D01*
X12072563Y-14786460D02*
X12063039Y-14776936D01*
X12063039Y-14776936D02*
X12053515Y-14757888D01*
X12053515Y-14757888D02*
X12053515Y-14700746D01*
X12053515Y-14700746D02*
X12063039Y-14681698D01*
X12063039Y-14681698D02*
X12072563Y-14672174D01*
X12072563Y-14672174D02*
X12091610Y-14662650D01*
X12091610Y-14662650D02*
X12120182Y-14662650D01*
X12120182Y-14662650D02*
X12139230Y-14672174D01*
X12139230Y-14672174D02*
X12148753Y-14681698D01*
X12148753Y-14681698D02*
X12158277Y-14700746D01*
X12158277Y-14700746D02*
X12158277Y-14757888D01*
X12158277Y-14757888D02*
X12148753Y-14776936D01*
X12148753Y-14776936D02*
X12139230Y-14786460D01*
X12139230Y-14786460D02*
X12120182Y-14795984D01*
X12120182Y-14795984D02*
X12091610Y-14795984D01*
X12272563Y-14795984D02*
X12253515Y-14786460D01*
X12253515Y-14786460D02*
X12243991Y-14767412D01*
X12243991Y-14767412D02*
X12243991Y-14595984D01*
X12424944Y-14786460D02*
X12405896Y-14795984D01*
X12405896Y-14795984D02*
X12367801Y-14795984D01*
X12367801Y-14795984D02*
X12348753Y-14786460D01*
X12348753Y-14786460D02*
X12339230Y-14767412D01*
X12339230Y-14767412D02*
X12339230Y-14691222D01*
X12339230Y-14691222D02*
X12348753Y-14672174D01*
X12348753Y-14672174D02*
X12367801Y-14662650D01*
X12367801Y-14662650D02*
X12405896Y-14662650D01*
X12405896Y-14662650D02*
X12424944Y-14672174D01*
X12424944Y-14672174D02*
X12434468Y-14691222D01*
X12434468Y-14691222D02*
X12434468Y-14710269D01*
X12434468Y-14710269D02*
X12339230Y-14729317D01*
X12510658Y-14786460D02*
X12529706Y-14795984D01*
X12529706Y-14795984D02*
X12567801Y-14795984D01*
X12567801Y-14795984D02*
X12586849Y-14786460D01*
X12586849Y-14786460D02*
X12596372Y-14767412D01*
X12596372Y-14767412D02*
X12596372Y-14757888D01*
X12596372Y-14757888D02*
X12586849Y-14738841D01*
X12586849Y-14738841D02*
X12567801Y-14729317D01*
X12567801Y-14729317D02*
X12539230Y-14729317D01*
X12539230Y-14729317D02*
X12520182Y-14719793D01*
X12520182Y-14719793D02*
X12510658Y-14700746D01*
X12510658Y-14700746D02*
X12510658Y-14691222D01*
X12510658Y-14691222D02*
X12520182Y-14672174D01*
X12520182Y-14672174D02*
X12539230Y-14662650D01*
X12539230Y-14662650D02*
X12567801Y-14662650D01*
X12567801Y-14662650D02*
X12586849Y-14672174D01*
X12834468Y-14719793D02*
X12986849Y-14719793D01*
X12910658Y-14795984D02*
X12910658Y-14643603D01*
X13224944Y-14615031D02*
X13234468Y-14605508D01*
X13234468Y-14605508D02*
X13253515Y-14595984D01*
X13253515Y-14595984D02*
X13301134Y-14595984D01*
X13301134Y-14595984D02*
X13320182Y-14605508D01*
X13320182Y-14605508D02*
X13329706Y-14615031D01*
X13329706Y-14615031D02*
X13339230Y-14634079D01*
X13339230Y-14634079D02*
X13339230Y-14653127D01*
X13339230Y-14653127D02*
X13329706Y-14681698D01*
X13329706Y-14681698D02*
X13215420Y-14795984D01*
X13215420Y-14795984D02*
X13339230Y-14795984D01*
X13567801Y-14786460D02*
X13586849Y-14795984D01*
X13586849Y-14795984D02*
X13624944Y-14795984D01*
X13624944Y-14795984D02*
X13643992Y-14786460D01*
X13643992Y-14786460D02*
X13653515Y-14767412D01*
X13653515Y-14767412D02*
X13653515Y-14757888D01*
X13653515Y-14757888D02*
X13643992Y-14738841D01*
X13643992Y-14738841D02*
X13624944Y-14729317D01*
X13624944Y-14729317D02*
X13596373Y-14729317D01*
X13596373Y-14729317D02*
X13577325Y-14719793D01*
X13577325Y-14719793D02*
X13567801Y-14700746D01*
X13567801Y-14700746D02*
X13567801Y-14691222D01*
X13567801Y-14691222D02*
X13577325Y-14672174D01*
X13577325Y-14672174D02*
X13596373Y-14662650D01*
X13596373Y-14662650D02*
X13624944Y-14662650D01*
X13624944Y-14662650D02*
X13643992Y-14672174D01*
X13767801Y-14795984D02*
X13748754Y-14786460D01*
X13748754Y-14786460D02*
X13739230Y-14767412D01*
X13739230Y-14767412D02*
X13739230Y-14595984D01*
X13872563Y-14795984D02*
X13853515Y-14786460D01*
X13853515Y-14786460D02*
X13843992Y-14776936D01*
X13843992Y-14776936D02*
X13834468Y-14757888D01*
X13834468Y-14757888D02*
X13834468Y-14700746D01*
X13834468Y-14700746D02*
X13843992Y-14681698D01*
X13843992Y-14681698D02*
X13853515Y-14672174D01*
X13853515Y-14672174D02*
X13872563Y-14662650D01*
X13872563Y-14662650D02*
X13901135Y-14662650D01*
X13901135Y-14662650D02*
X13920182Y-14672174D01*
X13920182Y-14672174D02*
X13929706Y-14681698D01*
X13929706Y-14681698D02*
X13939230Y-14700746D01*
X13939230Y-14700746D02*
X13939230Y-14757888D01*
X13939230Y-14757888D02*
X13929706Y-14776936D01*
X13929706Y-14776936D02*
X13920182Y-14786460D01*
X13920182Y-14786460D02*
X13901135Y-14795984D01*
X13901135Y-14795984D02*
X13872563Y-14795984D01*
X13996373Y-14662650D02*
X14072563Y-14662650D01*
X14024944Y-14595984D02*
X14024944Y-14767412D01*
X14024944Y-14767412D02*
X14034468Y-14786460D01*
X14034468Y-14786460D02*
X14053515Y-14795984D01*
X14053515Y-14795984D02*
X14072563Y-14795984D01*
X14129706Y-14786460D02*
X14148754Y-14795984D01*
X14148754Y-14795984D02*
X14186849Y-14795984D01*
X14186849Y-14795984D02*
X14205896Y-14786460D01*
X14205896Y-14786460D02*
X14215420Y-14767412D01*
X14215420Y-14767412D02*
X14215420Y-14757888D01*
X14215420Y-14757888D02*
X14205896Y-14738841D01*
X14205896Y-14738841D02*
X14186849Y-14729317D01*
X14186849Y-14729317D02*
X14158277Y-14729317D01*
X14158277Y-14729317D02*
X14139230Y-14719793D01*
X14139230Y-14719793D02*
X14129706Y-14700746D01*
X14129706Y-14700746D02*
X14129706Y-14691222D01*
X14129706Y-14691222D02*
X14139230Y-14672174D01*
X14139230Y-14672174D02*
X14158277Y-14662650D01*
X14158277Y-14662650D02*
X14186849Y-14662650D01*
X14186849Y-14662650D02*
X14205896Y-14672174D01*
X14282087Y-14872174D02*
X14291611Y-14862650D01*
X14291611Y-14862650D02*
X14310658Y-14834079D01*
X14310658Y-14834079D02*
X14320182Y-14815031D01*
X14320182Y-14815031D02*
X14329706Y-14786460D01*
X14329706Y-14786460D02*
X14339230Y-14738841D01*
X14339230Y-14738841D02*
X14339230Y-14700746D01*
X14339230Y-14700746D02*
X14329706Y-14653127D01*
X14329706Y-14653127D02*
X14320182Y-14624555D01*
X14320182Y-14624555D02*
X14310658Y-14605508D01*
X14310658Y-14605508D02*
X14291611Y-14576936D01*
X14291611Y-14576936D02*
X14282087Y-14567412D01*
M02*
