%TF.GenerationSoftware,KiCad,Pcbnew,9.0.6*%
%TF.CreationDate,2025-12-23T15:21:00+08:00*%
%TF.ProjectId,jays-hackpad,6a617973-2d68-4616-936b-7061642e6b69,rev?*%
%TF.SameCoordinates,Original*%
%TF.FileFunction,Copper,L1,Top*%
%TF.FilePolarity,Positive*%
%FSLAX46Y46*%
G04 Gerber Fmt 4.6, Leading zero omitted, Abs format (unit mm)*
G04 Created by KiCad (PCBNEW 9.0.6) date 2025-12-23 15:21:00*
%MOMM*%
%LPD*%
G01*
G04 APERTURE LIST*
G04 Aperture macros list*
%AMRoundRect*
0 Rectangle with rounded corners*
0 $1 Rounding radius*
0 $2 $3 $4 $5 $6 $7 $8 $9 X,Y pos of 4 corners*
0 Add a 4 corners polygon primitive as box body*
4,1,4,$2,$3,$4,$5,$6,$7,$8,$9,$2,$3,0*
0 Add four circle primitives for the rounded corners*
1,1,$1+$1,$2,$3*
1,1,$1+$1,$4,$5*
1,1,$1+$1,$6,$7*
1,1,$1+$1,$8,$9*
0 Add four rect primitives between the rounded corners*
20,1,$1+$1,$2,$3,$4,$5,0*
20,1,$1+$1,$4,$5,$6,$7,0*
20,1,$1+$1,$6,$7,$8,$9,0*
20,1,$1+$1,$8,$9,$2,$3,0*%
G04 Aperture macros list end*
%TA.AperFunction,ComponentPad*%
%ADD10R,2.000000X2.000000*%
%TD*%
%TA.AperFunction,ComponentPad*%
%ADD11C,2.000000*%
%TD*%
%TA.AperFunction,ComponentPad*%
%ADD12R,3.200000X2.000000*%
%TD*%
%TA.AperFunction,ComponentPad*%
%ADD13C,2.200000*%
%TD*%
%TA.AperFunction,ComponentPad*%
%ADD14R,1.700000X1.700000*%
%TD*%
%TA.AperFunction,ComponentPad*%
%ADD15O,1.700000X1.700000*%
%TD*%
%TA.AperFunction,SMDPad,CuDef*%
%ADD16RoundRect,0.152400X1.063600X0.609600X-1.063600X0.609600X-1.063600X-0.609600X1.063600X-0.609600X0*%
%TD*%
%TA.AperFunction,ComponentPad*%
%ADD17C,1.524000*%
%TD*%
%TA.AperFunction,SMDPad,CuDef*%
%ADD18RoundRect,0.152400X-1.063600X-0.609600X1.063600X-0.609600X1.063600X0.609600X-1.063600X0.609600X0*%
%TD*%
%TA.AperFunction,ViaPad*%
%ADD19C,0.600000*%
%TD*%
%TA.AperFunction,Conductor*%
%ADD20C,0.200000*%
%TD*%
G04 APERTURE END LIST*
D10*
%TO.P,SW7,A,A*%
%TO.N,Net-(U1-GPIO27{slash}ADC1{slash}A1)*%
X144650000Y-69900000D03*
D11*
%TO.P,SW7,B,B*%
%TO.N,Net-(U1-GPIO26{slash}ADC0{slash}A0)*%
X144650000Y-74900000D03*
%TO.P,SW7,C,C*%
%TO.N,GND*%
X144650000Y-72400000D03*
D12*
%TO.P,SW7,MP*%
%TO.N,N/C*%
X152150000Y-66800000D03*
X152150000Y-78000000D03*
D11*
%TO.P,SW7,S1,S1*%
%TO.N,Net-(U1-GPIO28{slash}ADC2{slash}A2)*%
X159150000Y-74900000D03*
%TO.P,SW7,S2,S2*%
%TO.N,GND*%
X159150000Y-69900000D03*
%TD*%
D13*
%TO.P,SW5,1,1*%
%TO.N,GND*%
X134240000Y-117020000D03*
%TO.P,SW5,2,2*%
%TO.N,Net-(U1-GPIO0{slash}TX)*%
X127890000Y-119560000D03*
%TD*%
D14*
%TO.P,Brd1,1,GND*%
%TO.N,GND*%
X105685000Y-76295000D03*
D15*
%TO.P,Brd1,2,VCC*%
%TO.N,Net-(Brd1-VCC)*%
X105685000Y-73755000D03*
%TO.P,Brd1,3,SCL*%
%TO.N,Net-(Brd1-SCL)*%
X105685000Y-71215000D03*
%TO.P,Brd1,4,SDA*%
%TO.N,Net-(Brd1-SDA)*%
X105685000Y-68675000D03*
%TD*%
D13*
%TO.P,SW6,1,1*%
%TO.N,GND*%
X153440000Y-117020000D03*
%TO.P,SW6,2,2*%
%TO.N,Net-(U1-GPIO29{slash}ADC3{slash}A3)*%
X147090000Y-119560000D03*
%TD*%
%TO.P,SW3,1,1*%
%TO.N,GND*%
X153440000Y-97820000D03*
%TO.P,SW3,2,2*%
%TO.N,Net-(U1-GPIO2{slash}SCK)*%
X147090000Y-100360000D03*
%TD*%
%TO.P,SW2,1,1*%
%TO.N,GND*%
X134240000Y-97820000D03*
%TO.P,SW2,2,2*%
%TO.N,Net-(U1-GPIO4{slash}MISO)*%
X127890000Y-100360000D03*
%TD*%
%TO.P,SW4,1,1*%
%TO.N,GND*%
X115040000Y-117020000D03*
%TO.P,SW4,2,2*%
%TO.N,Net-(U1-GPIO1{slash}RX)*%
X108690000Y-119560000D03*
%TD*%
D16*
%TO.P,U1,1,GPIO26/ADC0/A0*%
%TO.N,Net-(U1-GPIO26{slash}ADC0{slash}A0)*%
X80545000Y-64080000D03*
D17*
X81380000Y-64080000D03*
D16*
%TO.P,U1,2,GPIO27/ADC1/A1*%
%TO.N,Net-(U1-GPIO27{slash}ADC1{slash}A1)*%
X80545000Y-66620000D03*
D17*
X81380000Y-66620000D03*
D16*
%TO.P,U1,3,GPIO28/ADC2/A2*%
%TO.N,Net-(U1-GPIO28{slash}ADC2{slash}A2)*%
X80545000Y-69160000D03*
D17*
X81380000Y-69160000D03*
D16*
%TO.P,U1,4,GPIO29/ADC3/A3*%
%TO.N,Net-(U1-GPIO29{slash}ADC3{slash}A3)*%
X80545000Y-71700000D03*
D17*
X81380000Y-71700000D03*
D16*
%TO.P,U1,5,GPIO6/SDA*%
%TO.N,Net-(Brd1-SDA)*%
X80545000Y-74240000D03*
D17*
X81380000Y-74240000D03*
D16*
%TO.P,U1,6,GPIO7/SCL*%
%TO.N,Net-(Brd1-SCL)*%
X80545000Y-76780000D03*
D17*
X81380000Y-76780000D03*
D16*
%TO.P,U1,7,GPIO0/TX*%
%TO.N,Net-(U1-GPIO0{slash}TX)*%
X80545000Y-79320000D03*
D17*
X81380000Y-79320000D03*
%TO.P,U1,8,GPIO1/RX*%
%TO.N,Net-(U1-GPIO1{slash}RX)*%
X96620000Y-79320000D03*
D18*
X97455000Y-79320000D03*
D17*
%TO.P,U1,9,GPIO2/SCK*%
%TO.N,Net-(U1-GPIO2{slash}SCK)*%
X96620000Y-76780000D03*
D18*
X97455000Y-76780000D03*
D17*
%TO.P,U1,10,GPIO4/MISO*%
%TO.N,Net-(U1-GPIO4{slash}MISO)*%
X96620000Y-74240000D03*
D18*
X97455000Y-74240000D03*
D17*
%TO.P,U1,11,GPIO3/MOSI*%
%TO.N,Net-(U1-GPIO3{slash}MOSI)*%
X96620000Y-71700000D03*
D18*
X97455000Y-71700000D03*
D17*
%TO.P,U1,12,3V3*%
%TO.N,Net-(Brd1-VCC)*%
X96620000Y-69160000D03*
D18*
X97455000Y-69160000D03*
D17*
%TO.P,U1,13,GND*%
%TO.N,GND*%
X96620000Y-66620000D03*
D18*
X97455000Y-66620000D03*
D17*
%TO.P,U1,14,VBUS*%
%TO.N,+5V*%
X96620000Y-64080000D03*
D18*
X97455000Y-64080000D03*
%TD*%
D13*
%TO.P,SW1,1,1*%
%TO.N,GND*%
X115040000Y-97820000D03*
%TO.P,SW1,2,2*%
%TO.N,Net-(U1-GPIO3{slash}MOSI)*%
X108690000Y-100360000D03*
%TD*%
D19*
%TO.N,Net-(Brd1-SCL)*%
X102700000Y-70800000D03*
%TO.N,Net-(Brd1-VCC)*%
X101200000Y-69800000D03*
%TO.N,Net-(Brd1-SDA)*%
X87800000Y-73100000D03*
X99300000Y-71400000D03*
%TO.N,Net-(U1-GPIO4{slash}MISO)*%
X114300000Y-82200000D03*
%TO.N,Net-(U1-GPIO2{slash}SCK)*%
X107900000Y-87100000D03*
%TO.N,Net-(U1-GPIO1{slash}RX)*%
X96100000Y-89300000D03*
X96100000Y-86100000D03*
%TO.N,Net-(U1-GPIO29{slash}ADC3{slash}A3)*%
X97100000Y-84000000D03*
%TO.N,Net-(U1-GPIO26{slash}ADC0{slash}A0)*%
X138675000Y-74925000D03*
%TO.N,Net-(U1-GPIO28{slash}ADC2{slash}A2)*%
X130900000Y-82800000D03*
%TO.N,Net-(U1-GPIO27{slash}ADC1{slash}A1)*%
X100100000Y-72600000D03*
X103900000Y-72500000D03*
%TD*%
D20*
%TO.N,GND*%
X107980000Y-74000000D02*
X105685000Y-76295000D01*
X105257760Y-66620000D02*
X106836000Y-68198240D01*
X144650000Y-72400000D02*
X143050000Y-74000000D01*
X143050000Y-74000000D02*
X107980000Y-74000000D01*
X96620000Y-66620000D02*
X105257760Y-66620000D01*
X106836000Y-68198240D02*
X106836000Y-75144000D01*
X106836000Y-75144000D02*
X105685000Y-76295000D01*
%TO.N,Net-(Brd1-SCL)*%
X95800000Y-70500000D02*
X102400000Y-70500000D01*
X95100000Y-71200000D02*
X95100000Y-73400000D01*
X91720000Y-76780000D02*
X81380000Y-76780000D01*
X95100000Y-73400000D02*
X91720000Y-76780000D01*
X95800000Y-70500000D02*
X95100000Y-71200000D01*
X102400000Y-70500000D02*
X102700000Y-70800000D01*
%TO.N,Net-(Brd1-VCC)*%
X100560000Y-69160000D02*
X101200000Y-69800000D01*
X96620000Y-69160000D02*
X100560000Y-69160000D01*
%TO.N,Net-(Brd1-SDA)*%
X102960000Y-71400000D02*
X105685000Y-68675000D01*
X87800000Y-73100000D02*
X87300000Y-73100000D01*
X87300000Y-73100000D02*
X86160000Y-74240000D01*
X99300000Y-71400000D02*
X102960000Y-71400000D01*
X86160000Y-74240000D02*
X81380000Y-74240000D01*
%TO.N,Net-(U1-GPIO3{slash}MOSI)*%
X108690000Y-100360000D02*
X108690000Y-82560870D01*
X97829130Y-71700000D02*
X96620000Y-71700000D01*
X108690000Y-82560870D02*
X97829130Y-71700000D01*
%TO.N,Net-(U1-GPIO4{slash}MISO)*%
X114300000Y-86770000D02*
X127890000Y-100360000D01*
X114300000Y-82200000D02*
X114300000Y-86770000D01*
%TO.N,Net-(U1-GPIO2{slash}SCK)*%
X97580000Y-76780000D02*
X107900000Y-87100000D01*
X96620000Y-76780000D02*
X97580000Y-76780000D01*
%TO.N,Net-(U1-GPIO1{slash}RX)*%
X96100000Y-106970000D02*
X108690000Y-119560000D01*
X96100000Y-89300000D02*
X96100000Y-106970000D01*
X96100000Y-79840000D02*
X96620000Y-79320000D01*
X96100000Y-86100000D02*
X96100000Y-79840000D01*
%TO.N,Net-(U1-GPIO0{slash}TX)*%
X98000000Y-95200000D02*
X98000000Y-89000000D01*
X98000000Y-89000000D02*
X88320000Y-79320000D01*
X122360000Y-119560000D02*
X98000000Y-95200000D01*
X88320000Y-79320000D02*
X81380000Y-79320000D01*
X127890000Y-119560000D02*
X122360000Y-119560000D01*
%TO.N,Net-(U1-GPIO29{slash}ADC3{slash}A3)*%
X98672000Y-85572000D02*
X97100000Y-84000000D01*
X147090000Y-119560000D02*
X140730000Y-113200000D01*
X119418470Y-113200000D02*
X98672000Y-92453530D01*
X98672000Y-92453530D02*
X98672000Y-85572000D01*
X140730000Y-113200000D02*
X119418470Y-113200000D01*
%TO.N,Net-(U1-GPIO26{slash}ADC0{slash}A0)*%
X140250000Y-76500000D02*
X143050000Y-76500000D01*
X140250000Y-76500000D02*
X138675000Y-74925000D01*
X143050000Y-76500000D02*
X144650000Y-74900000D01*
%TO.N,Net-(U1-GPIO28{slash}ADC2{slash}A2)*%
X130900000Y-82800000D02*
X151250000Y-82800000D01*
X151250000Y-82800000D02*
X159150000Y-74900000D01*
%TO.N,Net-(U1-GPIO27{slash}ADC1{slash}A1)*%
X100200000Y-72500000D02*
X103900000Y-72500000D01*
X100100000Y-72600000D02*
X100200000Y-72500000D01*
%TD*%
M02*
